<svg width="105" height="111" viewBox="0 0 105 111" fill="none" xmlns="http://www.w3.org/2000/svg">
<path d="M91.67 28.8912C94.4185 28.901 97.0956 28.0151 99.2958 26.3677C101.496 24.7201 103.1 22.4009 103.864 19.7606C104.628 17.1204 104.512 14.3029 103.532 11.7348C102.553 9.1667 100.763 6.98763 98.4342 5.52743C96.1053 4.06724 93.3644 3.40539 90.6259 3.64205C87.8874 3.87873 85.3006 5.00102 83.257 6.83911C81.2132 8.67718 79.8239 11.131 79.2994 13.8291C78.7746 16.5272 79.1432 19.3229 80.3494 21.7928L64.53 37.6122C61.5632 35.5973 58.0931 34.4505 54.51 34.3006C50.927 34.1509 47.3732 35.004 44.2487 36.764L35.4725 26.3653C37.9308 23.1898 39.1347 19.2208 38.855 15.2145C38.5752 11.2084 36.831 7.44523 33.9551 4.64228C31.0792 1.83934 27.2724 0.192596 23.2604 0.0158542C19.2482 -0.160869 15.3115 1.1448 12.2003 3.68399C9.08895 6.22321 7.02072 9.81843 6.38972 13.7845C5.75873 17.7506 6.60907 21.8101 8.7787 25.1895C10.9483 28.5689 14.2856 31.0318 18.1543 32.1089C22.0231 33.1861 26.1529 32.802 29.7569 31.03L38.6069 41.5209C36.4449 44.2141 35.0473 47.4394 34.5608 50.8584C34.0742 54.2776 34.5165 57.7647 35.8412 60.954L23.2484 69.2878C20.8447 66.9949 17.6925 65.6493 14.3739 65.4996C11.0554 65.3501 7.7948 66.4066 5.19456 68.4738C2.59434 70.5412 0.830148 73.4797 0.227942 76.7465C-0.374282 80.0134 0.226153 83.3879 1.91831 86.2464C3.61049 89.1051 6.28003 91.2548 9.4338 92.2981C12.5875 93.3417 16.0125 93.2086 19.0757 91.9235C22.1389 90.6382 24.6335 88.2878 26.0987 85.3065C27.5637 82.3251 27.9004 78.9144 27.0466 75.704L39.9528 67.2043C43.1884 70.5157 47.5081 72.5512 52.1216 72.9384L53.5781 86.49C50.7753 87.603 48.4649 89.6848 47.0671 92.357C45.6692 95.0293 45.2768 98.1143 45.9612 101.051C46.6454 103.988 48.3611 106.582 50.7961 108.362C53.2309 110.141 56.2235 110.987 59.2296 110.747C62.2358 110.506 65.0558 109.195 67.1769 107.051C69.2979 104.907 70.5793 102.074 70.7881 99.0653C70.9968 96.0568 70.1188 93.0733 68.3139 90.6572C66.5091 88.2413 63.8972 86.5532 60.9531 85.9L59.4044 72.0165C63.2521 70.8148 66.6293 68.443 69.0656 65.2315L77.6944 69.4906C77.7569 71.8521 78.6417 74.1175 80.1963 75.896C81.751 77.6744 83.8778 78.8545 86.2096 79.2322C88.5413 79.61 90.9319 79.162 92.9686 77.9652C95.0052 76.7686 96.5602 74.8985 97.3652 72.6775C98.17 70.4567 98.1744 68.0246 97.3773 65.8009C96.5805 63.5771 95.0321 61.7015 92.9997 60.4975C90.9674 59.2936 88.5784 58.8369 86.2453 59.2063C83.9121 59.5758 81.7812 60.7483 80.2203 62.5212L72.3291 58.6309C73.0739 55.9507 73.2255 53.1404 72.7734 50.3954C72.3211 47.6506 71.2761 45.0375 69.7109 42.7378L85.4197 27.195C87.3178 28.2998 89.4737 28.8848 91.67 28.8912ZM13.8637 85.5312C12.6201 85.5312 11.4046 85.1625 10.3707 84.4716C9.33677 83.7808 8.53092 82.799 8.05507 81.6501C7.57919 80.5013 7.45469 79.237 7.69729 78.0176C7.93989 76.7979 8.53868 75.6777 9.41795 74.7984C10.2972 73.9191 11.4175 73.3203 12.6371 73.0776C13.8567 72.8352 15.1208 72.9596 16.2697 73.4355C17.4185 73.9114 18.4005 74.7171 19.0913 75.7511C19.7822 76.785 20.1509 78.0006 20.1509 79.244C20.146 80.91 19.482 82.5064 18.3041 83.6843C17.1261 84.8625 15.5296 85.5264 13.8637 85.5312ZM87.8166 66.4853C88.3599 66.4853 88.8909 66.6464 89.3428 66.9482C89.7945 67.2501 90.1467 67.6793 90.3545 68.1812C90.5625 68.6832 90.6168 69.2356 90.5108 69.7685C90.4048 70.3013 90.1432 70.7908 89.759 71.175C89.3749 71.5593 88.8854 71.8209 88.3524 71.9269C87.8195 72.0329 87.2671 71.9786 86.7653 71.7706C86.2632 71.5626 85.8342 71.2104 85.5323 70.7587C85.2303 70.307 85.0694 69.7758 85.0694 69.2325C85.0694 68.5038 85.3587 67.8052 85.874 67.2899C86.3891 66.7748 87.0879 66.4853 87.8166 66.4853ZM91.67 11.0622C92.5404 11.0602 93.3976 11.2761 94.1633 11.6901C94.929 12.1042 95.5791 12.7032 96.0541 13.4327C96.5292 14.1622 96.8141 14.9989 96.883 15.8666C96.952 16.7345 96.8028 17.6056 96.449 18.401C96.095 19.1964 95.5478 19.8906 94.8571 20.4203C94.1663 20.95 93.3541 21.2987 92.4942 21.4342C91.6342 21.5697 90.754 21.488 89.9339 21.1963C89.1136 20.9048 88.3795 20.4126 87.7981 19.7647L87.7059 19.654C86.9022 18.7202 86.4577 17.5304 86.4522 16.2984C86.4522 14.9128 87.0013 13.5838 87.9792 12.6024C88.9573 11.6209 90.2844 11.0671 91.67 11.0622ZM13.7716 16.3906C13.7716 14.6317 14.2924 12.9121 15.2685 11.4489C16.2446 9.98565 17.6322 8.84423 19.2562 8.16862C20.8803 7.493 22.668 7.31345 24.394 7.65259C26.1199 7.99175 27.7066 8.83442 28.9543 10.0743C30.202 11.3142 31.0543 12.8958 31.4043 14.6196C31.754 16.3434 31.5855 18.1322 30.9199 19.7604C30.2545 21.3886 29.1217 22.7833 27.6644 23.7684C26.2073 24.7535 24.4909 25.285 22.7322 25.2959C21.5586 25.3007 20.3958 25.0741 19.31 24.629C18.2244 24.1839 17.2371 23.5291 16.4048 22.7018C15.5724 21.8747 14.9114 20.8914 14.4596 19.8085C14.0077 18.7255 13.774 17.5641 13.7716 16.3906ZM63.3869 98.1425C63.3869 99.1744 63.0808 100.183 62.5074 101.041C61.9342 101.899 61.1192 102.568 60.1658 102.963C59.2123 103.358 58.1632 103.461 57.1511 103.26C56.1389 103.059 55.2091 102.562 54.4793 101.832C53.7498 101.102 53.2527 100.173 53.0514 99.1604C52.85 98.1484 52.9535 97.0991 53.3484 96.1457C53.7433 95.1923 54.4121 94.3774 55.2701 93.8041C56.1282 93.2307 57.1369 92.9247 58.1691 92.9247C59.5513 92.9296 60.8757 93.4809 61.8532 94.4583C62.8306 95.4358 63.3819 96.7602 63.3869 98.1425ZM53.7072 65.5818C51.342 65.5818 49.03 64.881 47.0631 63.5677C45.0961 62.2546 43.5623 60.388 42.6556 58.2035C41.7488 56.0192 41.5097 53.6152 41.9684 51.295C42.4271 48.9748 43.5632 46.8427 45.2329 45.1678C46.9028 43.4928 49.0314 42.3502 51.3501 41.8845C53.6688 41.4186 56.0736 41.6503 58.2607 42.5503C60.4479 43.4504 62.3193 44.9783 63.6385 46.9412C64.9577 48.9042 65.6658 51.2141 65.6731 53.579C65.6779 55.1536 65.372 56.7136 64.7728 58.1696C64.1736 59.6256 63.293 60.9491 62.1814 62.0642C61.0698 63.1791 59.749 64.0639 58.2948 64.6675C56.8406 65.2712 55.2816 65.5818 53.7072 65.5818Z" fill="white"/>
</svg>
