<svg width="75" height="78" viewBox="0 0 75 78" fill="none" xmlns="http://www.w3.org/2000/svg">
<path d="M65.8782 20.341C67.8534 20.3479 69.7773 19.7242 71.3585 18.5643C72.9397 17.4043 74.0922 15.7715 74.6415 13.9126C75.1908 12.0537 75.107 10.0701 74.403 8.26197C73.6989 6.45387 72.4128 4.91968 70.7393 3.89162C69.0657 2.86356 67.0959 2.39758 65.1279 2.56421C63.1599 2.73084 61.3009 3.521 59.8322 4.81512C58.3635 6.10922 57.3651 7.83684 56.9881 9.73647C56.611 11.6361 56.8759 13.6044 57.7427 15.3433L46.3742 26.4811C44.2421 25.0625 41.7483 24.2551 39.1733 24.1495C36.5985 24.0441 34.0445 24.6448 31.7992 25.8839L25.4922 18.5626C27.2588 16.3269 28.124 13.5325 27.923 10.7118C27.7219 7.89132 26.4684 5.24185 24.4017 3.26843C22.3349 1.295 19.5992 0.135598 16.716 0.0111622C13.8327 -0.113261 11.0035 0.806004 8.7677 2.59374C6.53173 4.38148 5.04541 6.91272 4.59194 9.70503C4.13849 12.4974 4.74958 15.3555 6.30877 17.7348C7.86797 20.1141 10.2663 21.8481 13.0465 22.6065C15.8268 23.3648 18.7947 23.0944 21.3846 21.8468L27.7447 29.233C26.191 31.1292 25.1866 33.3999 24.8369 35.8071C24.4873 38.2145 24.8051 40.6696 25.7572 42.915L16.7074 48.7825C14.98 47.1681 12.7146 46.2208 10.3297 46.1154C7.94489 46.0101 5.6017 46.7539 3.73305 48.2093C1.86441 49.6649 0.596582 51.7338 0.163809 54.0338C-0.268976 56.3339 0.162524 58.7097 1.37859 60.7223C2.59466 62.735 4.51312 64.2484 6.77956 64.983C9.04595 65.7178 11.5073 65.624 13.7086 64.7193C15.91 63.8144 17.7027 62.1595 18.7557 60.0605C19.8086 57.9615 20.0505 55.5601 19.4369 53.2999L28.7119 47.3156C31.0372 49.647 34.1415 51.0801 37.4569 51.3527L38.5037 60.8938C36.4894 61.6774 34.829 63.1431 33.8246 65.0245C32.8199 66.9059 32.538 69.0779 33.0298 71.1458C33.5215 73.2137 34.7545 75.04 36.5044 76.2926C38.2542 77.5453 40.4048 78.1411 42.5651 77.9717C44.7255 77.8025 46.7521 76.8792 48.2764 75.3699C49.8007 73.8606 50.7215 71.8656 50.8715 69.7475C51.0215 67.6294 50.3905 65.5288 49.0935 63.8277C47.7965 62.1268 45.9195 60.9383 43.8037 60.4784L42.6907 50.7037C45.4558 49.8575 47.8828 48.1877 49.6337 45.9266L55.8347 48.9253C55.8796 50.5879 56.5155 52.1828 57.6327 53.435C58.75 54.6871 60.2784 55.5179 61.9541 55.7839C63.6298 56.0499 65.3478 55.7344 66.8114 54.8918C68.275 54.0494 69.3925 52.7327 69.971 51.169C70.5494 49.6055 70.5526 47.8931 69.9798 46.3275C69.4071 44.7618 68.2944 43.4413 66.8338 42.5936C65.3733 41.746 63.6565 41.4244 61.9798 41.6846C60.303 41.9447 58.7717 42.7702 57.65 44.0184L51.979 41.2794C52.5143 39.3924 52.6232 37.4138 52.2983 35.4812C51.9733 33.5487 51.2222 31.7089 50.0975 30.0898L61.3865 19.1468C62.7506 19.9246 64.2999 20.3365 65.8782 20.341ZM9.96312 60.2187C9.0694 60.2187 8.19587 59.9591 7.45285 59.4727C6.70983 58.9863 6.13071 58.2951 5.78874 57.4862C5.44675 56.6774 5.35728 55.7873 5.53162 54.9287C5.70596 54.07 6.13629 53.2813 6.76817 52.6622C7.40006 52.0432 8.20513 51.6215 9.0816 51.4507C9.95808 51.28 10.8665 51.3676 11.6921 51.7027C12.5177 52.0377 13.2234 52.605 13.7199 53.333C14.2164 54.0609 14.4814 54.9168 14.4814 55.7922C14.4778 56.9652 14.0007 58.0891 13.1541 58.9184C12.3076 59.7479 11.1603 60.2154 9.96312 60.2187ZM63.109 46.8093C63.4995 46.8093 63.8811 46.9228 64.2058 47.1353C64.5304 47.3478 64.7835 47.65 64.9328 48.0033C65.0823 48.3568 65.1214 48.7457 65.0452 49.1209C64.969 49.496 64.781 49.8407 64.5049 50.1112C64.2289 50.3817 63.8771 50.5659 63.494 50.6406C63.1111 50.7152 62.7141 50.6769 62.3535 50.5305C61.9927 50.3841 61.6843 50.1361 61.4674 49.8181C61.2504 49.5 61.1347 49.1261 61.1347 48.7435C61.1347 48.2305 61.3426 47.7387 61.713 47.3758C62.0832 47.0131 62.5853 46.8093 63.109 46.8093ZM65.8782 7.78839C66.5038 7.78702 67.1198 7.939 67.67 8.2305C68.2203 8.522 68.6875 8.94376 69.0288 9.45735C69.3703 9.97095 69.575 10.5601 69.6245 11.171C69.6741 11.782 69.5669 12.3953 69.3126 12.9553C69.0582 13.5153 68.665 14.0041 68.1686 14.377C67.6722 14.75 67.0885 14.9954 66.4705 15.0909C65.8525 15.1863 65.22 15.1288 64.6306 14.9234C64.0411 14.7182 63.5135 14.3716 63.0957 13.9154L63.0295 13.8375C62.4519 13.1801 62.1325 12.3424 62.1285 11.475C62.1285 10.4995 62.5231 9.56376 63.2258 8.87276C63.9288 8.18176 64.8825 7.79183 65.8782 7.78839ZM9.89687 11.5399C9.89687 10.3015 10.2712 9.09087 10.9726 8.06066C11.6741 7.03046 12.6713 6.22683 13.8384 5.75116C15.0056 5.27549 16.2903 5.14908 17.5306 5.38785C18.7709 5.62664 19.9112 6.21992 20.8079 7.09288C21.7045 7.96584 22.317 9.07938 22.5685 10.293C22.8199 11.5067 22.6988 12.7661 22.2205 13.9124C21.7423 15.0588 20.9282 16.0407 19.8809 16.7343C18.8337 17.4278 17.6003 17.8021 16.3364 17.8097C15.493 17.8131 14.6573 17.6536 13.877 17.3402C13.0969 17.0268 12.3873 16.5658 11.7892 15.9833C11.191 15.401 10.716 14.7087 10.3914 13.9463C10.0666 13.1838 9.89859 12.3661 9.89687 11.5399ZM45.5527 69.0978C45.5527 69.8243 45.3327 70.5346 44.9207 71.1388C44.5087 71.7429 43.9231 72.2137 43.2379 72.4918C42.5526 72.7698 41.7987 72.8425 41.0714 72.7008C40.344 72.559 39.6758 72.2092 39.1513 71.6954C38.627 71.1816 38.2698 70.5271 38.1251 69.8144C37.9804 69.1019 38.0548 68.3632 38.3386 67.6919C38.6224 67.0207 39.103 66.4469 39.7196 66.0433C40.3363 65.6396 41.0612 65.4241 41.8029 65.4241C42.7963 65.4276 43.748 65.8158 44.4506 66.5039C45.1529 67.1921 45.5491 68.1246 45.5527 69.0978ZM38.5964 46.1733C36.8967 46.1733 35.2352 45.6799 33.8217 44.7552C32.4081 43.8307 31.3059 42.5165 30.6542 40.9785C30.0026 39.4407 29.8307 37.7481 30.1604 36.1145C30.4901 34.481 31.3065 32.9799 32.5065 31.8007C33.7065 30.6214 35.2362 29.8169 36.9025 29.489C38.5689 29.161 40.2971 29.3242 41.8688 29.9578C43.4406 30.5915 44.7855 31.6672 45.7336 33.0492C46.6816 34.4313 47.1904 36.0575 47.1957 37.7226C47.1991 38.8312 46.9793 39.9295 46.5487 40.9546C46.1181 41.9798 45.4853 42.9115 44.6864 43.6966C43.8876 44.4816 42.9383 45.1045 41.8933 45.5295C40.8483 45.9545 39.7278 46.1733 38.5964 46.1733Z" fill="#041621"/>
</svg>
