<svg width="178" height="58" viewBox="0 0 178 58" fill="none" xmlns="http://www.w3.org/2000/svg">
<path d="M30.108 31.6059C30.9508 31.6088 31.7717 31.3449 32.4463 30.8542C33.1209 30.3635 33.6127 29.6726 33.8471 28.8862C34.0814 28.0997 34.0457 27.2605 33.7453 26.4955C33.4449 25.7306 32.8961 25.0815 32.1821 24.6465C31.468 24.2116 30.6276 24.0144 29.7879 24.0849C28.9482 24.1554 28.155 24.4897 27.5284 25.0372C26.9018 25.5847 26.4758 26.3157 26.3149 27.1194C26.154 27.923 26.267 28.7558 26.6369 29.4915L21.7863 34.2036C20.8766 33.6034 19.8126 33.2618 18.714 33.2172C17.6153 33.1726 16.5257 33.4267 15.5676 33.951L12.8767 30.8535C13.6304 29.9076 13.9996 28.7254 13.9138 27.532C13.828 26.3387 13.2932 25.2178 12.4114 24.3829C11.5296 23.548 10.3623 23.0574 9.13216 23.0048C7.90193 22.9522 6.69483 23.3411 5.74088 24.0974C4.78687 24.8538 4.15271 25.9247 3.95923 27.1061C3.76575 28.2874 4.02648 29.4967 4.69174 30.5033C5.357 31.5099 6.38028 32.2435 7.56652 32.5644C8.75276 32.8852 10.0191 32.7708 11.1241 32.243L13.8377 35.3679C13.1748 36.1701 12.7463 37.1308 12.5971 38.1493C12.4479 39.1677 12.5835 40.2064 12.9897 41.1564L9.12848 43.6388C8.39146 42.9558 7.4249 42.555 6.40736 42.5104C5.38982 42.4659 4.39006 42.7806 3.59277 43.3963C2.79548 44.0122 2.25454 44.8875 2.06989 45.8605C1.88524 46.8337 2.06934 47.8388 2.58819 48.6903C3.10705 49.5418 3.9256 50.1821 4.89261 50.4929C5.85961 50.8038 6.90977 50.7641 7.84902 50.3813C8.78826 49.9985 9.55316 49.2983 10.0024 48.4103C10.4516 47.5222 10.5549 46.5063 10.2931 45.55L14.2504 43.0182C15.2425 44.0046 16.567 44.6109 17.9816 44.7262L18.4282 48.7628C17.5688 49.0944 16.8604 49.7145 16.4318 50.5104C16.0032 51.3064 15.8829 52.2253 16.0927 53.1002C16.3025 53.9751 16.8286 54.7478 17.5752 55.2777C18.3218 55.8077 19.2394 56.0598 20.1611 55.9881C21.0829 55.9165 21.9476 55.5259 22.5979 54.8874C23.2483 54.2488 23.6412 53.4048 23.7052 52.5086C23.7692 51.6125 23.5 50.7238 22.9466 50.0041C22.3932 49.2845 21.5923 48.7817 20.6896 48.5871L20.2147 44.4516C21.3945 44.0937 22.43 43.3872 23.177 42.4306L25.8228 43.6992C25.842 44.4026 26.1133 45.0774 26.59 45.6072C27.0667 46.1369 27.7188 46.4884 28.4338 46.601C29.1487 46.7135 29.8817 46.58 30.5062 46.2236C31.1307 45.8671 31.6075 45.3101 31.8543 44.6485C32.1011 43.987 32.1024 43.2626 31.858 42.6002C31.6137 41.9378 31.1389 41.3791 30.5158 41.0205C29.8926 40.6618 29.1601 40.5258 28.4447 40.6359C27.7293 40.7459 27.0759 41.0951 26.5973 41.6233L24.1777 40.4645C24.4061 39.6661 24.4526 38.829 24.3139 38.0114C24.1753 37.1938 23.8548 36.4154 23.3749 35.7304L28.1916 31.1006C28.7736 31.4297 29.4346 31.604 30.108 31.6059ZM6.25093 48.4772C5.86961 48.4772 5.4969 48.3674 5.17988 48.1616C4.86286 47.9558 4.61577 47.6634 4.46986 47.3212C4.32395 46.979 4.28577 46.6024 4.36016 46.2392C4.43454 45.8759 4.61815 45.5422 4.88775 45.2803C5.15736 45.0183 5.50086 44.84 5.87481 44.7677C6.24878 44.6955 6.63637 44.7325 6.98864 44.8743C7.3409 45.016 7.64199 45.256 7.85382 45.564C8.06565 45.872 8.17872 46.2341 8.17872 46.6045C8.17719 47.1007 7.97362 47.5762 7.61243 47.9271C7.25123 48.278 6.76171 48.4758 6.25093 48.4772ZM28.9265 42.804C29.0931 42.804 29.2559 42.852 29.3945 42.9419C29.533 43.0318 29.641 43.1597 29.7047 43.3092C29.7685 43.4587 29.7851 43.6233 29.7526 43.782C29.7201 43.9407 29.6399 44.0865 29.5221 44.201C29.4043 44.3154 29.2542 44.3934 29.0908 44.4249C28.9274 44.4565 28.758 44.4403 28.6041 44.3784C28.4502 44.3164 28.3186 44.2115 28.2261 44.077C28.1335 43.9424 28.0842 43.7842 28.0842 43.6223C28.0842 43.4053 28.1728 43.1972 28.3309 43.0437C28.4888 42.8903 28.7031 42.804 28.9265 42.804ZM30.108 26.2952C30.3749 26.2946 30.6378 26.3589 30.8726 26.4822C31.1073 26.6055 31.3067 26.784 31.4523 27.0013C31.598 27.2186 31.6853 27.4678 31.7065 27.7263C31.7276 27.9848 31.6819 28.2443 31.5734 28.4812C31.4649 28.7181 31.2971 28.9249 31.0853 29.0827C30.8735 29.2405 30.6244 29.3443 30.3608 29.3847C30.0971 29.425 29.8272 29.4007 29.5757 29.3138C29.3242 29.227 29.0991 29.0804 28.9208 28.8874L28.8926 28.8544C28.6461 28.5763 28.5098 28.2219 28.5082 27.8549C28.5082 27.4422 28.6765 27.0463 28.9764 26.7539C29.2763 26.4616 29.6832 26.2966 30.108 26.2952ZM6.22266 27.8823C6.22266 27.3584 6.38237 26.8462 6.68166 26.4104C6.98095 25.9745 7.40642 25.6345 7.90436 25.4333C8.40237 25.232 8.95052 25.1785 9.47972 25.2796C10.0089 25.3806 10.4955 25.6316 10.878 26.0009C11.2606 26.3702 11.5219 26.8414 11.6292 27.3548C11.7365 27.8683 11.6848 28.4011 11.4807 28.8861C11.2767 29.3711 10.9294 29.7865 10.4825 30.08C10.0357 30.3734 9.50946 30.5317 8.97019 30.535C8.61035 30.5364 8.2538 30.4689 7.92087 30.3363C7.588 30.2037 7.28527 30.0087 7.03007 29.7622C6.77483 29.5159 6.57215 29.223 6.43365 28.9004C6.29508 28.5778 6.2234 28.2319 6.22266 27.8823ZM21.4358 52.2337C21.4358 52.5411 21.342 52.8417 21.1662 53.0973C20.9904 53.3528 20.7405 53.552 20.4482 53.6697C20.1558 53.7873 19.8341 53.8181 19.5238 53.7581C19.2134 53.6981 18.9283 53.5501 18.7046 53.3327C18.4809 53.1154 18.3285 52.8385 18.2667 52.537C18.205 52.2355 18.2367 51.923 18.3578 51.639C18.4789 51.355 18.6839 51.1122 18.947 50.9415C19.2102 50.7707 19.5194 50.6795 19.8359 50.6795C20.2598 50.681 20.6658 50.8452 20.9656 51.1363C21.2653 51.4275 21.4343 51.822 21.4358 52.2337ZM18.4678 42.5349C17.7426 42.5349 17.0337 42.3262 16.4306 41.935C15.8275 41.5438 15.3572 40.9878 15.0791 40.3372C14.8011 39.6865 14.7278 38.9704 14.8684 38.2793C15.0091 37.5882 15.3575 36.9531 15.8694 36.4542C16.3814 35.9553 17.0341 35.6149 17.7451 35.4762C18.4561 35.3374 19.1934 35.4065 19.864 35.6745C20.5347 35.9426 21.1085 36.3978 21.513 36.9824C21.9175 37.5672 22.1346 38.2552 22.1368 38.9597C22.1383 39.4287 22.0445 39.8933 21.8608 40.327C21.677 40.7607 21.407 41.155 21.0662 41.4871C20.7254 41.8192 20.3204 42.0828 19.8745 42.2626C19.4286 42.4424 18.9505 42.5349 18.4678 42.5349Z" fill="white"/>
<path d="M25.815 7.06708V7.20208H25.167C25.185 7.29208 25.194 7.38208 25.194 7.47208C25.194 7.56208 25.194 7.65208 25.194 7.74208H20.469C20.469 7.97608 20.352 8.15608 20.118 8.28208C20.01 8.31808 19.929 8.33608 19.875 8.33608H14.367C14.295 8.33608 14.223 8.33608 14.151 8.33608C14.079 8.31808 14.007 8.30008 13.935 8.28208H9.534V8.41708H11.91C11.892 8.50708 11.883 8.59708 11.883 8.68708C11.883 8.77708 11.883 8.86708 11.883 8.95708H10.938C10.92 8.99308 10.911 9.03808 10.911 9.09208C10.911 9.14608 10.911 9.19108 10.911 9.22708H10.992V9.49708H10.587V10.0371H11.883V10.1721H7.509V10.4421H8.886V10.9821H11.667V11.1171H10.533V11.2521H9.804V11.7921H11.883C11.901 11.8641 11.91 11.9361 11.91 12.0081C11.91 12.0621 11.91 12.1251 11.91 12.1971H12.666V12.3321H9.183V12.6021H8.4V12.7371H11.91V12.7641H17.31C17.652 12.7641 17.85 12.9351 17.904 13.2771H21.9V13.6821H21.711L21.657 14.2221H21.36L21.333 14.4921H22.035C22.035 14.5461 22.026 14.5911 22.008 14.6271H21.846C21.828 14.6631 21.819 14.7081 21.819 14.7621H22.71L22.629 15.1671H21.792C21.792 15.1851 21.783 15.2031 21.765 15.2211C21.765 15.2391 21.765 15.2661 21.765 15.3021H21.549C21.531 15.3741 21.504 15.4461 21.468 15.5181C21.45 15.5721 21.432 15.6351 21.414 15.7071H21.738C21.738 15.7251 21.72 15.7701 21.684 15.8421H21.144C21.108 15.9321 21.063 16.0221 21.009 16.1121C20.973 16.2021 20.928 16.2921 20.874 16.3821H21.414L21.171 16.7871H21.414L21.144 17.1921H20.982C20.91 17.2821 20.829 17.3721 20.739 17.4621C20.667 17.5521 20.586 17.6421 20.496 17.7321H20.28C20.262 17.7501 20.244 17.7681 20.226 17.7861C20.208 17.8041 20.181 17.8311 20.145 17.8671H18.984L18.849 18.0021H24.276C24.168 18.0921 24.06 18.1821 23.952 18.2721C23.844 18.3621 23.727 18.4521 23.601 18.5421H23.304C23.124 18.6681 22.908 18.8031 22.656 18.9471H16.959C16.779 19.0551 16.59 19.1541 16.392 19.2441C16.194 19.3161 15.996 19.3971 15.798 19.4871H20.253C20.199 19.5051 20.136 19.5231 20.064 19.5411C20.01 19.5591 19.947 19.5861 19.875 19.6221H18.795C18.723 19.6401 18.651 19.6581 18.579 19.6761C18.507 19.6941 18.435 19.7211 18.363 19.7571H16.419C15.771 19.9371 15.105 20.0721 14.421 20.1621H14.853C14.565 20.1981 14.268 20.2251 13.962 20.2431C13.656 20.2611 13.35 20.2701 13.044 20.2701C12.702 20.2701 12.369 20.2611 12.045 20.2431C11.739 20.2251 11.433 20.1981 11.127 20.1621H10.695C9.975 20.0721 9.309 19.9371 8.697 19.7571H10.641C10.569 19.7211 10.497 19.6941 10.425 19.6761C10.371 19.6581 10.308 19.6401 10.236 19.6221H11.343L10.965 19.4871H6.51C6.33 19.3971 6.141 19.3161 5.943 19.2441C5.763 19.1541 5.583 19.0551 5.403 18.9471H11.127C11.019 18.8751 10.911 18.8121 10.803 18.7581C10.695 18.6861 10.596 18.6141 10.506 18.5421H10.803C10.587 18.3801 10.38 18.2001 10.182 18.0021H4.728C4.71 17.9661 4.692 17.9391 4.674 17.9211C4.656 17.9031 4.629 17.8851 4.593 17.8671H5.781C5.763 17.8311 5.736 17.8041 5.7 17.7861C5.682 17.7681 5.664 17.7501 5.646 17.7321H5.862C5.7 17.5521 5.547 17.3721 5.403 17.1921H5.565L5.322 16.7871H5.079L4.836 16.3821H4.296L4.053 15.8421H4.62L4.566 15.7071H4.215C4.197 15.6351 4.179 15.5721 4.161 15.5181C4.143 15.4461 4.116 15.3741 4.08 15.3021H4.296L4.242 15.1671H5.079C5.061 15.0951 5.043 15.0321 5.025 14.9781C5.007 14.9061 4.989 14.8341 4.971 14.7621H4.539C4.521 14.7261 4.512 14.6811 4.512 14.6271H4.053C4.035 14.5911 4.026 14.5461 4.026 14.4921H4.053C4.053 14.4201 4.035 14.3301 3.999 14.2221H2.46L2.379 13.6821H4.458C4.44 13.6101 4.431 13.5471 4.431 13.4931C4.431 13.4211 4.422 13.3491 4.404 13.2771H4.917C4.917 13.2231 4.917 13.1691 4.917 13.1151C4.917 13.0611 4.908 13.0071 4.89 12.9531V12.7371H1.38V12.6021H2.163V12.3321H5.646V12.1971H4.89C4.89 12.1251 4.881 12.0621 4.863 12.0081C4.863 11.9361 4.863 11.8641 4.863 11.7921H2.784V11.2521H3.513V11.1171H4.647V10.9821H1.866V10.4421H0.488998V10.1721H4.863V10.0371H3.567V9.49708H3.972V9.22708H3.891V8.95708H4.863V8.41708H2.514V8.28208H7.698V8.14708C7.716 8.07508 7.725 8.01208 7.725 7.95808C7.725 7.88608 7.725 7.81408 7.725 7.74208H6.294C6.294 7.65208 6.294 7.56208 6.294 7.47208C6.312 7.38208 6.33 7.29208 6.348 7.20208H7.212C7.23 7.16608 7.239 7.12108 7.239 7.06708H1.65C1.668 7.03108 1.677 6.98608 1.677 6.93208C1.677 6.87808 1.686 6.83308 1.704 6.79708H6.618L6.753 6.25708H5.646L5.727 5.98708H3.918L3.972 5.85208H4.566C4.584 5.81608 4.602 5.77108 4.62 5.71708C4.638 5.66308 4.656 5.61808 4.674 5.58208H4.377L4.485 5.31208H4.62C4.656 5.24008 4.692 5.17708 4.728 5.12308C4.764 5.05108 4.791 4.97908 4.809 4.90708H4.836L5.079 4.50208H4.998C5.034 4.43008 5.07 4.36708 5.106 4.31308C5.16 4.24108 5.214 4.16908 5.268 4.09708H5.052C5.124 4.00708 5.196 3.91708 5.268 3.82708C5.34 3.71908 5.412 3.62908 5.484 3.55708H5.241C5.259 3.52108 5.277 3.49408 5.295 3.47608C5.313 3.45808 5.331 3.44008 5.349 3.42208H5.079L5.214 3.28708H5.16C5.196 3.25108 5.223 3.22408 5.241 3.20608C5.259 3.18808 5.277 3.17008 5.295 3.15208H4.809C4.845 3.11608 4.89 3.07108 4.944 3.01708C4.998 2.96308 5.052 2.91808 5.106 2.88208H5.754C5.844 2.81008 5.934 2.74708 6.024 2.69308C6.114 2.62108 6.204 2.54908 6.294 2.47708H5.997L6.213 2.34208H5.754C5.79 2.30608 5.826 2.27908 5.862 2.26108C5.898 2.24308 5.934 2.22508 5.97 2.20708H7.374C7.5 2.13508 7.626 2.07208 7.752 2.01808C7.878 1.94608 8.004 1.87408 8.13 1.80208H8.049C8.157 1.74808 8.265 1.70308 8.373 1.66708C8.481 1.61308 8.589 1.56808 8.697 1.53208H9.21C9.264 1.49608 9.318 1.46908 9.372 1.45108C9.444 1.43308 9.516 1.41508 9.588 1.39708H8.778C9.318 1.19908 9.894 1.06408 10.506 0.992078H11.235C11.937 0.884078 12.675 0.830078 13.449 0.830078C14.205 0.830078 14.934 0.884078 15.636 0.992078H14.934C15.528 1.06408 16.122 1.19908 16.716 1.39708H17.526C17.598 1.41508 17.661 1.43308 17.715 1.45108C17.787 1.46908 17.859 1.49608 17.931 1.53208H17.418C17.688 1.62208 17.913 1.71208 18.093 1.80208H18.174C18.318 1.87408 18.453 1.94608 18.579 2.01808C18.705 2.07208 18.831 2.13508 18.957 2.20708H17.58C17.616 2.22508 17.652 2.24308 17.688 2.26108C17.724 2.27908 17.76 2.30608 17.796 2.34208H18.255C18.291 2.36008 18.327 2.37808 18.363 2.39608C18.399 2.41408 18.426 2.44108 18.444 2.47708H18.741L19.281 2.88208H18.606L18.93 3.15208H19.416L19.578 3.28708H19.605L19.74 3.42208H20.01L20.145 3.55708H20.388C20.46 3.62908 20.532 3.71908 20.604 3.82708C20.676 3.91708 20.748 4.00708 20.82 4.09708H21.009C21.063 4.16908 21.108 4.24108 21.144 4.31308C21.198 4.36708 21.243 4.43008 21.279 4.50208H21.36C21.396 4.57408 21.432 4.64608 21.468 4.71808C21.504 4.77208 21.54 4.83508 21.576 4.90708H21.522C21.558 4.97908 21.594 5.05108 21.63 5.12308C21.666 5.17708 21.693 5.24008 21.711 5.31208H21.576L21.657 5.58208H21.954L22.035 5.85208H21.441C21.441 5.87008 21.441 5.88808 21.441 5.90608C21.459 5.92408 21.468 5.95108 21.468 5.98708H23.277C23.277 6.05908 23.295 6.14908 23.331 6.25708H20.874L20.955 6.79708H22.521L22.548 7.06708H25.815ZM13.422 6.25708H15.339C15.051 6.14908 14.727 6.09508 14.367 6.09508C14.007 6.09508 13.692 6.14908 13.422 6.25708ZM18.093 7.55308C18.075 7.48108 18.057 7.41808 18.039 7.36408C18.021 7.31008 17.994 7.25608 17.958 7.20208H18.606L18.525 7.06708H15.285C15.267 7.01308 15.24 6.96808 15.204 6.93208C15.168 6.87808 15.132 6.83308 15.096 6.79708H8.967C8.949 6.83308 8.922 6.87808 8.886 6.93208C8.868 6.96808 8.841 7.01308 8.805 7.06708H14.394L14.34 7.20208H13.476C13.44 7.27408 13.413 7.36408 13.395 7.47208C13.377 7.56208 13.359 7.65208 13.341 7.74208H18.174L18.093 7.55308ZM14.907 13.2771H11.451L11.532 13.6821H9.453C9.489 13.7901 9.525 13.8891 9.561 13.9791C9.597 14.0511 9.642 14.1321 9.696 14.2221H11.235C11.271 14.2761 11.307 14.3301 11.343 14.3841C11.379 14.4201 11.415 14.4561 11.451 14.4921H11.397L11.532 14.6271H11.991C12.027 14.6451 12.063 14.6721 12.099 14.7081C12.135 14.7261 12.171 14.7441 12.207 14.7621H12.639C12.945 14.9241 13.314 15.0051 13.746 15.0051C14.178 15.0051 14.538 14.9241 14.826 14.7621H13.935L14.151 14.6271H14.313L14.475 14.4921H13.773C13.809 14.4561 13.845 14.4201 13.881 14.3841C13.935 14.3301 13.971 14.2761 13.989 14.2221H14.286C14.394 14.0601 14.484 13.8801 14.556 13.6821H14.745L14.799 13.5471C14.835 13.4391 14.871 13.3491 14.907 13.2771Z" fill="white"/>
<path d="M24.5568 20.0001V6.50008H26.5818V9.82108C26.6538 9.58708 26.7888 9.28108 26.9868 8.90308C27.2028 8.50708 27.5088 8.11108 27.9048 7.71508C28.3008 7.31908 28.7958 6.98608 29.3898 6.71608C30.0018 6.42808 30.7218 6.28408 31.5498 6.28408H31.6848V8.30908H31.4418C30.4338 8.30908 29.5608 8.58808 28.8228 9.14608C28.1028 9.68608 27.5448 10.3971 27.1488 11.2791C26.7708 12.1431 26.5818 13.0701 26.5818 14.0601V20.0001H24.5568Z" fill="white"/>
<path d="M39.5156 20.2161C38.1476 20.2161 36.9506 19.9101 35.9246 19.2981C34.8986 18.6681 34.0976 17.8221 33.5216 16.7601C32.9636 15.6981 32.6846 14.5281 32.6846 13.2501C32.6846 11.9541 32.9546 10.7841 33.4946 9.74008C34.0346 8.67808 34.8086 7.84108 35.8166 7.22908C36.8246 6.59908 38.0126 6.28408 39.3806 6.28408C40.7666 6.28408 41.9546 6.59908 42.9446 7.22908C43.9526 7.84108 44.7266 8.67808 45.2666 9.74008C45.8066 10.7841 46.0766 11.9541 46.0766 13.2501V14.0601H34.7636C34.8716 14.8521 35.1236 15.5811 35.5196 16.2471C35.9336 16.8951 36.4826 17.4171 37.1666 17.8131C37.8506 18.1911 38.6426 18.3801 39.5426 18.3801C40.4966 18.3801 41.2976 18.1731 41.9456 17.7591C42.5936 17.3271 43.0976 16.7781 43.4576 16.1121H45.6716C45.2036 17.3181 44.4566 18.3081 43.4306 19.0821C42.4226 19.8381 41.1176 20.2161 39.5156 20.2161ZM34.7906 12.1701H43.9706C43.7906 11.0181 43.3046 10.0551 42.5126 9.28108C41.7206 8.50708 40.6766 8.12008 39.3806 8.12008C38.0846 8.12008 37.0406 8.50708 36.2486 9.28108C35.4746 10.0551 34.9886 11.0181 34.7906 12.1701Z" fill="white"/>
<path d="M54.2479 20.2161C52.9339 20.2161 51.7819 19.9101 50.7919 19.2981C49.8199 18.6681 49.0639 17.8221 48.5239 16.7601C47.9839 15.6981 47.7139 14.5281 47.7139 13.2501C47.7139 11.9541 47.9839 10.7841 48.5239 9.74008C49.0639 8.67808 49.8199 7.84108 50.7919 7.22908C51.7819 6.59908 52.9339 6.28408 54.2479 6.28408C55.3639 6.28408 56.3179 6.50008 57.1099 6.93208C57.9199 7.36408 58.5769 7.94908 59.0809 8.68708V6.50008H61.1059V20.0001H59.0809V17.8401C58.5769 18.5601 57.9199 19.1361 57.1099 19.5681C56.3179 20.0001 55.3639 20.2161 54.2479 20.2161ZM54.5179 18.3801C55.5259 18.3801 56.3719 18.1461 57.0559 17.6781C57.7579 17.2101 58.2889 16.5891 58.6489 15.8151C59.0089 15.0231 59.1889 14.1681 59.1889 13.2501C59.1889 12.3141 59.0089 11.4591 58.6489 10.6851C58.2889 9.91108 57.7579 9.29008 57.0559 8.82208C56.3719 8.35408 55.5259 8.12008 54.5179 8.12008C53.5279 8.12008 52.6729 8.35408 51.9529 8.82208C51.2329 9.29008 50.6839 9.91108 50.3059 10.6851C49.9279 11.4591 49.7389 12.3141 49.7389 13.2501C49.7389 14.1681 49.9279 15.0231 50.3059 15.8151C50.6839 16.5891 51.2329 17.2101 51.9529 17.6781C52.6729 18.1461 53.5279 18.3801 54.5179 18.3801Z" fill="white"/>
<path d="M66.0665 20.0001V8.28208H63.3125V6.50008H66.0665V1.66708H68.0915V6.50008H71.1965V8.28208H68.0915V20.0001H66.0665Z" fill="white"/>
<path d="M73.3342 4.23208V1.58608H75.5212V4.23208H73.3342ZM73.4152 20.0001V6.50008H75.4402V20.0001H73.4152Z" fill="white"/>
<path d="M82.6243 20.0001L77.3323 6.50008H79.5463L83.8123 17.8401L88.0513 6.50008H90.2653L85.0003 20.0001H82.6243Z" fill="white"/>
<path d="M97.8926 20.2161C96.5246 20.2161 95.3276 19.9101 94.3016 19.2981C93.2756 18.6681 92.4746 17.8221 91.8986 16.7601C91.3406 15.6981 91.0616 14.5281 91.0616 13.2501C91.0616 11.9541 91.3316 10.7841 91.8716 9.74008C92.4116 8.67808 93.1856 7.84108 94.1936 7.22908C95.2016 6.59908 96.3896 6.28408 97.7576 6.28408C99.1436 6.28408 100.332 6.59908 101.322 7.22908C102.33 7.84108 103.104 8.67808 103.644 9.74008C104.184 10.7841 104.454 11.9541 104.454 13.2501V14.0601H93.1406C93.2486 14.8521 93.5006 15.5811 93.8966 16.2471C94.3106 16.8951 94.8596 17.4171 95.5436 17.8131C96.2276 18.1911 97.0196 18.3801 97.9196 18.3801C98.8736 18.3801 99.6746 18.1731 100.323 17.7591C100.971 17.3271 101.475 16.7781 101.835 16.1121H104.049C103.581 17.3181 102.834 18.3081 101.808 19.0821C100.8 19.8381 99.4946 20.2161 97.8926 20.2161ZM93.1676 12.1701H102.348C102.168 11.0181 101.682 10.0551 100.89 9.28108C100.098 8.50708 99.0536 8.12008 97.7576 8.12008C96.4616 8.12008 95.4176 8.50708 94.6256 9.28108C93.8516 10.0551 93.3656 11.0181 93.1676 12.1701Z" fill="white"/>
<path d="M60.3033 39.0671V39.2021H59.6553C59.6733 39.2921 59.6823 39.3821 59.6823 39.4721C59.6823 39.5621 59.6823 39.6521 59.6823 39.7421H54.9573C54.9573 39.9761 54.8403 40.1561 54.6063 40.2821C54.4983 40.3181 54.4173 40.3361 54.3633 40.3361H48.8553C48.7833 40.3361 48.7113 40.3361 48.6393 40.3361C48.5673 40.3181 48.4953 40.3001 48.4233 40.2821H44.0223V40.4171H46.3983C46.3803 40.5071 46.3713 40.5971 46.3713 40.6871C46.3713 40.7771 46.3713 40.8671 46.3713 40.9571H45.4263C45.4083 40.9931 45.3993 41.0381 45.3993 41.0921C45.3993 41.1461 45.3993 41.1911 45.3993 41.2271H45.4803V41.4971H45.0753V42.0371H46.3713V42.1721H41.9973V42.4421H43.3743V42.9821H46.1553V43.1171H45.0213V43.2521H44.2923V43.7921H46.3713C46.3893 43.8641 46.3983 43.9361 46.3983 44.0081C46.3983 44.0621 46.3983 44.1251 46.3983 44.1971H47.1543V44.3321H43.6713V44.6021H42.8883V44.7371H46.3983V44.7641H51.7983C52.1403 44.7641 52.3383 44.9351 52.3923 45.2771H56.3883V45.6821H56.1993L56.1453 46.2221H55.8483L55.8213 46.4921H56.5233C56.5233 46.5461 56.5143 46.5911 56.4963 46.6271H56.3343C56.3163 46.6631 56.3073 46.7081 56.3073 46.7621H57.1983L57.1173 47.1671H56.2803C56.2803 47.1851 56.2713 47.2031 56.2533 47.2211C56.2533 47.2391 56.2533 47.2661 56.2533 47.3021H56.0373C56.0193 47.3741 55.9923 47.4461 55.9563 47.5181C55.9383 47.5721 55.9203 47.6351 55.9023 47.7071H56.2263C56.2263 47.7251 56.2083 47.7701 56.1723 47.8421H55.6323C55.5963 47.9321 55.5513 48.0221 55.4973 48.1121C55.4613 48.2021 55.4163 48.2921 55.3623 48.3821H55.9023L55.6593 48.7871H55.9023L55.6323 49.1921H55.4703C55.3983 49.2821 55.3173 49.3721 55.2273 49.4621C55.1553 49.5521 55.0743 49.6421 54.9843 49.7321H54.7683C54.7503 49.7501 54.7323 49.7681 54.7143 49.7861C54.6963 49.8041 54.6693 49.8311 54.6333 49.8671H53.4723L53.3373 50.0021H58.7643C58.6563 50.0921 58.5483 50.1821 58.4403 50.2721C58.3323 50.3621 58.2153 50.4521 58.0893 50.5421H57.7923C57.6123 50.6681 57.3963 50.8031 57.1443 50.9471H51.4473C51.2673 51.0551 51.0783 51.1541 50.8803 51.2441C50.6823 51.3161 50.4843 51.3971 50.2863 51.4871H54.7413C54.6873 51.5051 54.6243 51.5231 54.5523 51.5411C54.4983 51.5591 54.4353 51.5861 54.3633 51.6221H53.2833C53.2113 51.6401 53.1393 51.6581 53.0673 51.6761C52.9953 51.6941 52.9233 51.7211 52.8513 51.7571H50.9073C50.2593 51.9371 49.5933 52.0721 48.9093 52.1621H49.3413C49.0533 52.1981 48.7563 52.2251 48.4503 52.2431C48.1443 52.2611 47.8383 52.2701 47.5323 52.2701C47.1903 52.2701 46.8573 52.2611 46.5333 52.2431C46.2273 52.2251 45.9213 52.1981 45.6153 52.1621H45.1833C44.4633 52.0721 43.7973 51.9371 43.1853 51.7571H45.1293C45.0573 51.7211 44.9853 51.6941 44.9133 51.6761C44.8593 51.6581 44.7963 51.6401 44.7243 51.6221H45.8313L45.4533 51.4871H40.9983C40.8183 51.3971 40.6293 51.3161 40.4313 51.2441C40.2513 51.1541 40.0713 51.0551 39.8913 50.9471H45.6153C45.5073 50.8751 45.3993 50.8121 45.2913 50.7581C45.1833 50.6861 45.0843 50.6141 44.9943 50.5421H45.2913C45.0753 50.3801 44.8683 50.2001 44.6703 50.0021H39.2163C39.1983 49.9661 39.1803 49.9391 39.1623 49.9211C39.1443 49.9031 39.1173 49.8851 39.0813 49.8671H40.2693C40.2513 49.8311 40.2243 49.8041 40.1883 49.7861C40.1703 49.7681 40.1523 49.7501 40.1343 49.7321H40.3503C40.1883 49.5521 40.0353 49.3721 39.8913 49.1921H40.0533L39.8103 48.7871H39.5673L39.3243 48.3821H38.7843L38.5413 47.8421H39.1083L39.0543 47.7071H38.7033C38.6853 47.6351 38.6673 47.5721 38.6493 47.5181C38.6313 47.4461 38.6043 47.3741 38.5683 47.3021H38.7843L38.7303 47.1671H39.5673C39.5493 47.0951 39.5313 47.0321 39.5133 46.9781C39.4953 46.9061 39.4773 46.8341 39.4593 46.7621H39.0273C39.0093 46.7261 39.0003 46.6811 39.0003 46.6271H38.5413C38.5233 46.5911 38.5143 46.5461 38.5143 46.4921H38.5413C38.5413 46.4201 38.5233 46.3301 38.4873 46.2221H36.9483L36.8673 45.6821H38.9463C38.9283 45.6101 38.9193 45.5471 38.9193 45.4931C38.9193 45.4211 38.9103 45.3491 38.8923 45.2771H39.4053C39.4053 45.2231 39.4053 45.1691 39.4053 45.1151C39.4053 45.0611 39.3963 45.0071 39.3783 44.9531V44.7371H35.8683V44.6021H36.6513V44.3321H40.1343V44.1971H39.3783C39.3783 44.1251 39.3693 44.0621 39.3513 44.0081C39.3513 43.9361 39.3513 43.8641 39.3513 43.7921H37.2723V43.2521H38.0013V43.1171H39.1353V42.9821H36.3543V42.4421H34.9773V42.1721H39.3513V42.0371H38.0553V41.4971H38.4603V41.2271H38.3793V40.9571H39.3513V40.4171H37.0023V40.2821H42.1863V40.1471C42.2043 40.0751 42.2133 40.0121 42.2133 39.9581C42.2133 39.8861 42.2133 39.8141 42.2133 39.7421H40.7823C40.7823 39.6521 40.7823 39.5621 40.7823 39.4721C40.8003 39.3821 40.8183 39.2921 40.8363 39.2021H41.7003C41.7183 39.1661 41.7273 39.1211 41.7273 39.0671H36.1383C36.1563 39.0311 36.1653 38.9861 36.1653 38.9321C36.1653 38.8781 36.1743 38.8331 36.1923 38.7971H41.1063L41.2413 38.2571H40.1343L40.2153 37.9871H38.4063L38.4603 37.8521H39.0543C39.0723 37.8161 39.0903 37.7711 39.1083 37.7171C39.1263 37.6631 39.1443 37.6181 39.1623 37.5821H38.8653L38.9733 37.3121H39.1083C39.1443 37.2401 39.1803 37.1771 39.2163 37.1231C39.2523 37.0511 39.2793 36.9791 39.2973 36.9071H39.3243L39.5673 36.5021H39.4863C39.5223 36.4301 39.5583 36.3671 39.5943 36.3131C39.6483 36.2411 39.7023 36.1691 39.7563 36.0971H39.5403C39.6123 36.0071 39.6843 35.9171 39.7563 35.8271C39.8283 35.7191 39.9003 35.6291 39.9723 35.5571H39.7293C39.7473 35.5211 39.7653 35.4941 39.7833 35.4761C39.8013 35.4581 39.8193 35.4401 39.8373 35.4221H39.5673L39.7023 35.2871H39.6483C39.6843 35.2511 39.7113 35.2241 39.7293 35.2061C39.7473 35.1881 39.7653 35.1701 39.7833 35.1521H39.2973C39.3333 35.1161 39.3783 35.0711 39.4323 35.0171C39.4863 34.9631 39.5403 34.9181 39.5943 34.8821H40.2423C40.3323 34.8101 40.4223 34.7471 40.5123 34.6931C40.6023 34.6211 40.6923 34.5491 40.7823 34.4771H40.4853L40.7013 34.3421H40.2423C40.2783 34.3061 40.3143 34.2791 40.3503 34.2611C40.3863 34.2431 40.4223 34.2251 40.4583 34.2071H41.8623C41.9883 34.1351 42.1143 34.0721 42.2403 34.0181C42.3663 33.9461 42.4923 33.8741 42.6183 33.8021H42.5373C42.6453 33.7481 42.7533 33.7031 42.8613 33.6671C42.9693 33.6131 43.0773 33.5681 43.1853 33.5321H43.6983C43.7523 33.4961 43.8063 33.4691 43.8603 33.4511C43.9323 33.4331 44.0043 33.4151 44.0763 33.3971H43.2663C43.8063 33.1991 44.3823 33.0641 44.9943 32.9921H45.7233C46.4253 32.8841 47.1633 32.8301 47.9373 32.8301C48.6933 32.8301 49.4223 32.8841 50.1243 32.9921H49.4223C50.0163 33.0641 50.6103 33.1991 51.2043 33.3971H52.0143C52.0863 33.4151 52.1493 33.4331 52.2033 33.4511C52.2753 33.4691 52.3473 33.4961 52.4193 33.5321H51.9063C52.1763 33.6221 52.4013 33.7121 52.5813 33.8021H52.6623C52.8063 33.8741 52.9413 33.9461 53.0673 34.0181C53.1933 34.0721 53.3193 34.1351 53.4453 34.2071H52.0683C52.1043 34.2251 52.1403 34.2431 52.1763 34.2611C52.2123 34.2791 52.2483 34.3061 52.2843 34.3421H52.7433C52.7793 34.3601 52.8153 34.3781 52.8513 34.3961C52.8873 34.4141 52.9143 34.4411 52.9323 34.4771H53.2293L53.7693 34.8821H53.0943L53.4183 35.1521H53.9043L54.0663 35.2871H54.0933L54.2283 35.4221H54.4983L54.6333 35.5571H54.8763C54.9483 35.6291 55.0203 35.7191 55.0923 35.8271C55.1643 35.9171 55.2363 36.0071 55.3083 36.0971H55.4973C55.5513 36.1691 55.5963 36.2411 55.6323 36.3131C55.6863 36.3671 55.7313 36.4301 55.7673 36.5021H55.8483C55.8843 36.5741 55.9203 36.6461 55.9563 36.7181C55.9923 36.7721 56.0283 36.8351 56.0643 36.9071H56.0103C56.0463 36.9791 56.0823 37.0511 56.1183 37.1231C56.1543 37.1771 56.1813 37.2401 56.1993 37.3121H56.0643L56.1453 37.5821H56.4423L56.5233 37.8521H55.9293C55.9293 37.8701 55.9293 37.8881 55.9293 37.9061C55.9473 37.9241 55.9563 37.9511 55.9563 37.9871H57.7653C57.7653 38.0591 57.7833 38.1491 57.8193 38.2571H55.3623L55.4433 38.7971H57.0093L57.0363 39.0671H60.3033ZM47.9103 38.2571H49.8273C49.5393 38.1491 49.2153 38.0951 48.8553 38.0951C48.4953 38.0951 48.1803 38.1491 47.9103 38.2571ZM52.5813 39.5531C52.5633 39.4811 52.5453 39.4181 52.5273 39.3641C52.5093 39.3101 52.4823 39.2561 52.4463 39.2021H53.0943L53.0133 39.0671H49.7733C49.7553 39.0131 49.7283 38.9681 49.6923 38.9321C49.6563 38.8781 49.6203 38.8331 49.5843 38.7971H43.4553C43.4373 38.8331 43.4103 38.8781 43.3743 38.9321C43.3563 38.9681 43.3293 39.0131 43.2933 39.0671H48.8823L48.8283 39.2021H47.9643C47.9283 39.2741 47.9013 39.3641 47.8833 39.4721C47.8653 39.5621 47.8473 39.6521 47.8293 39.7421H52.6623L52.5813 39.5531ZM49.3953 45.2771H45.9393L46.0203 45.6821H43.9413C43.9773 45.7901 44.0133 45.8891 44.0493 45.9791C44.0853 46.0511 44.1303 46.1321 44.1843 46.2221H45.7233C45.7593 46.2761 45.7953 46.3301 45.8313 46.3841C45.8673 46.4201 45.9033 46.4561 45.9393 46.4921H45.8853L46.0203 46.6271H46.4793C46.5153 46.6451 46.5513 46.6721 46.5873 46.7081C46.6233 46.7261 46.6593 46.7441 46.6953 46.7621H47.1273C47.4333 46.9241 47.8023 47.0051 48.2343 47.0051C48.6663 47.0051 49.0263 46.9241 49.3143 46.7621H48.4233L48.6393 46.6271H48.8013L48.9633 46.4921H48.2613C48.2973 46.4561 48.3333 46.4201 48.3693 46.3841C48.4233 46.3301 48.4593 46.2761 48.4773 46.2221H48.7743C48.8823 46.0601 48.9723 45.8801 49.0443 45.6821H49.2333L49.2873 45.5471C49.3233 45.4391 49.3593 45.3491 49.3953 45.2771Z" fill="white"/>
<path d="M64.904 52.2161C63.536 52.2161 62.348 51.9101 61.34 51.2981C60.332 50.6681 59.558 49.8221 59.018 48.7601C58.478 47.6981 58.208 46.5281 58.208 45.2501C58.208 43.9541 58.478 42.7841 59.018 41.7401C59.558 40.6781 60.332 39.8411 61.34 39.2291C62.348 38.5991 63.536 38.2841 64.904 38.2841C66.29 38.2841 67.478 38.5991 68.468 39.2291C69.476 39.8411 70.25 40.6781 70.79 41.7401C71.33 42.7841 71.6 43.9541 71.6 45.2501C71.6 46.5281 71.33 47.6981 70.79 48.7601C70.25 49.8221 69.476 50.6681 68.468 51.2981C67.478 51.9101 66.29 52.2161 64.904 52.2161ZM64.904 50.3801C65.912 50.3801 66.758 50.1461 67.442 49.6781C68.144 49.2101 68.675 48.5891 69.035 47.8151C69.395 47.0231 69.575 46.1681 69.575 45.2501C69.575 44.3141 69.395 43.4591 69.035 42.6851C68.675 41.9111 68.144 41.2901 67.442 40.8221C66.758 40.3541 65.912 40.1201 64.904 40.1201C63.914 40.1201 63.068 40.3541 62.366 40.8221C61.664 41.2901 61.133 41.9111 60.773 42.6851C60.413 43.4591 60.233 44.3141 60.233 45.2501C60.233 46.1681 60.413 47.0231 60.773 47.8151C61.133 48.5891 61.664 49.2101 62.366 49.6781C63.068 50.1461 63.914 50.3801 64.904 50.3801Z" fill="white"/>
<path d="M74.2853 52.0001V38.5001H76.3103V40.5521C76.6163 40.0121 77.1023 39.4991 77.7683 39.0131C78.4343 38.5271 79.3163 38.2841 80.4143 38.2841C81.3143 38.2841 82.1423 38.5271 82.8983 39.0131C83.6723 39.4811 84.2753 40.1471 84.7073 41.0111C84.8873 40.7051 85.1663 40.3361 85.5443 39.9041C85.9403 39.4721 86.4533 39.0941 87.0833 38.7701C87.7133 38.4461 88.4693 38.2841 89.3513 38.2841C90.2153 38.2841 91.0253 38.5091 91.7813 38.9591C92.5373 39.4091 93.1493 40.0571 93.6173 40.9031C94.1033 41.7311 94.3463 42.7121 94.3463 43.8461V52.0001H92.3213V43.9001C92.3213 42.7661 91.9973 41.8571 91.3493 41.1731C90.7193 40.4711 89.9273 40.1201 88.9733 40.1201C87.9833 40.1201 87.1283 40.4531 86.4083 41.1191C85.6883 41.7851 85.3283 42.7211 85.3283 43.9271V52.0001H83.3033V43.9001C83.3033 42.7661 82.9793 41.8571 82.3313 41.1731C81.7013 40.4711 80.9093 40.1201 79.9553 40.1201C78.9653 40.1201 78.1103 40.4531 77.3903 41.1191C76.6703 41.7851 76.3103 42.7211 76.3103 43.9271V52.0001H74.2853Z" fill="white"/>
<path d="M97.7257 52.0001V38.5001H99.7507V40.5521C100.057 40.0121 100.543 39.4991 101.209 39.0131C101.875 38.5271 102.757 38.2841 103.855 38.2841C104.755 38.2841 105.583 38.5271 106.339 39.0131C107.113 39.4811 107.716 40.1471 108.148 41.0111C108.328 40.7051 108.607 40.3361 108.985 39.9041C109.381 39.4721 109.894 39.0941 110.524 38.7701C111.154 38.4461 111.91 38.2841 112.792 38.2841C113.656 38.2841 114.466 38.5091 115.222 38.9591C115.978 39.4091 116.59 40.0571 117.058 40.9031C117.544 41.7311 117.787 42.7121 117.787 43.8461V52.0001H115.762V43.9001C115.762 42.7661 115.438 41.8571 114.79 41.1731C114.16 40.4711 113.368 40.1201 112.414 40.1201C111.424 40.1201 110.569 40.4531 109.849 41.1191C109.129 41.7851 108.769 42.7211 108.769 43.9271V52.0001H106.744V43.9001C106.744 42.7661 106.42 41.8571 105.772 41.1731C105.142 40.4711 104.35 40.1201 103.396 40.1201C102.406 40.1201 101.551 40.4531 100.831 41.1191C100.111 41.7851 99.7507 42.7211 99.7507 43.9271V52.0001H97.7257Z" fill="white"/>
<path d="M126.431 52.2161C125.513 52.2161 124.64 52.0001 123.812 51.5681C122.984 51.1181 122.309 50.4611 121.787 49.5971C121.283 48.7151 121.031 47.6351 121.031 46.3571V38.5001H123.056V46.3031C123.056 47.5271 123.407 48.5171 124.109 49.2731C124.829 50.0111 125.738 50.3801 126.836 50.3801C127.592 50.3801 128.276 50.2091 128.888 49.8671C129.5 49.5071 129.986 49.0211 130.346 48.4091C130.724 47.7971 130.913 47.0861 130.913 46.2761V38.5001H132.938V52.0001H130.913V49.8941C130.427 50.5421 129.833 51.0911 129.131 51.5411C128.429 51.9911 127.529 52.2161 126.431 52.2161Z" fill="white"/>
<path d="M136.459 52.0001V38.5001H138.484V40.6061C138.97 39.9581 139.564 39.4091 140.266 38.9591C140.968 38.5091 141.868 38.2841 142.966 38.2841C143.902 38.2841 144.775 38.5091 145.585 38.9591C146.413 39.3911 147.079 40.0481 147.583 40.9301C148.105 41.7941 148.366 42.8651 148.366 44.1431V52.0001H146.341V44.1971C146.341 42.9731 145.99 41.9921 145.288 41.2541C144.586 40.4981 143.677 40.1201 142.561 40.1201C141.805 40.1201 141.121 40.2911 140.509 40.6331C139.897 40.9751 139.402 41.4611 139.024 42.0911C138.664 42.7031 138.484 43.4141 138.484 44.2241V52.0001H136.459Z" fill="white"/>
<path d="M151.671 36.2321V33.5861H153.858V36.2321H151.671ZM151.752 52.0001V38.5001H153.777V52.0001H151.752Z" fill="white"/>
<path d="M158.747 52.0001V40.2821H155.993V38.5001H158.747V33.6671H160.772V38.5001H163.877V40.2821H160.772V52.0001H158.747Z" fill="white"/>
<path d="M167.5 57.3461L169.957 51.8111L164.449 38.5001H166.69L171.037 49.5701L175.465 38.5001H177.679L169.687 57.3461H167.5Z" fill="white"/>
</svg>
