<svg width="65" height="57" viewBox="0 0 65 57" fill="none" xmlns="http://www.w3.org/2000/svg">
<path d="M32.5003 0C14.5532 0 0 12.9131 0 28.8429C0 41.5865 9.31232 52.398 22.2257 56.2118C23.8499 56.4788 24.4462 55.5862 24.4462 54.8243C24.4462 54.1366 24.4161 51.8645 24.4021 49.4544C15.3605 51.1992 13.4526 46.0513 13.4526 46.0513C11.9742 42.7175 9.84405 41.831 9.84405 41.831C6.8953 40.0409 10.0663 40.0776 10.0663 40.0776C13.3299 40.2811 15.0484 43.0499 15.0484 43.0499C17.9471 47.4593 22.6514 46.1846 24.506 45.4476C24.7977 43.5834 25.64 42.311 26.5694 41.5908C19.3507 40.8614 11.7622 38.3883 11.7622 27.3365C11.7622 24.1875 13.0318 21.6145 15.1108 19.5946C14.7733 18.8682 13.6609 15.9346 15.4256 11.9617C15.4256 11.9617 18.1548 11.1865 24.3655 14.9182C26.958 14.2791 29.7383 13.9586 32.5003 13.9476C35.2623 13.9586 38.0447 14.2791 40.642 14.9182C46.8452 11.1865 49.5706 11.9617 49.5706 11.9617C51.3396 15.9346 50.2267 18.8682 49.8892 19.5946C51.9731 21.6145 53.2341 24.1875 53.2341 27.3365C53.2341 38.4145 45.6311 40.8538 38.394 41.5678C39.5597 42.4629 40.5984 44.2182 40.5984 46.9091C40.5984 50.7683 40.5608 53.8743 40.5608 54.8243C40.5608 55.5919 41.1458 56.4913 42.7932 56.208C55.6995 52.3899 65 41.5822 65 28.8429C65 12.9131 50.4489 0 32.5003 0ZM12.1724 41.0873C12.1008 41.2306 11.8468 41.2736 11.6154 41.1752C11.3797 41.0811 11.2473 40.8858 11.3237 40.742C11.3936 40.5944 11.6482 40.5533 11.8834 40.6522C12.1197 40.7463 12.2542 40.9436 12.1724 41.0873ZM13.7711 42.3533C13.6161 42.4808 13.3131 42.4216 13.1075 42.22C12.8949 42.0189 12.8551 41.75 13.0122 41.6206C13.1721 41.4931 13.4659 41.5528 13.679 41.7538C13.8916 41.9573 13.9331 42.2243 13.7711 42.3533ZM14.8678 43.973C14.6687 44.0957 14.3431 43.9806 14.1418 43.7241C13.9426 43.4676 13.9426 43.1601 14.1461 43.0368C14.3479 42.9136 14.6687 43.0244 14.8726 43.279C15.0712 43.5398 15.0712 43.8474 14.8678 43.973ZM16.7226 45.8488C16.5445 46.0232 16.165 45.9764 15.8873 45.7385C15.6032 45.5059 15.5241 45.1759 15.7027 45.0015C15.883 44.8267 16.2646 44.8759 16.5445 45.1119C16.8265 45.344 16.9126 45.6764 16.7226 45.8488ZM19.1198 46.4821C19.0412 46.708 18.6758 46.8107 18.3076 46.7147C17.9401 46.6158 17.6995 46.3512 17.7738 46.1229C17.8502 45.8956 18.2172 45.7886 18.588 45.8913C18.9551 45.9897 19.1962 46.2524 19.1198 46.4821ZM21.8479 46.7507C21.857 46.9886 21.5449 47.1858 21.1584 47.1901C20.7699 47.1978 20.4556 47.0053 20.4513 46.7713C20.4513 46.531 20.7564 46.3357 21.145 46.3299C21.5314 46.3232 21.8479 46.5143 21.8479 46.7507ZM24.5279 46.6595C24.5742 46.8917 24.3056 47.13 23.9219 47.1935C23.5446 47.2547 23.1953 47.1114 23.1474 46.8812C23.1006 46.6433 23.374 46.405 23.7507 46.3434C24.135 46.2841 24.4789 46.4236 24.5279 46.6595Z" fill="#161614"/>
</svg>
