<svg width="53" height="50" viewBox="0 0 53 50" fill="none" xmlns="http://www.w3.org/2000/svg">
<path d="M26.438 35.8306C20.9852 35.8306 16.5237 32.4182 15.2018 27.7649L4.13092 38.1572C8.75758 44.982 17.0195 49.6353 26.438 49.6353C31.5604 49.6353 36.3523 48.2393 40.4832 45.7575L29.4123 35.3652C28.4209 35.6755 27.4294 35.8306 26.438 35.8306Z" fill="#34A853"/>
<path d="M52.8761 21.4052C52.7109 20.6296 52.0499 20.1643 51.2237 20.1643H26.4381C25.4467 20.1643 24.7857 20.7847 24.7857 21.7154V29.4709C24.7857 30.4015 25.4467 31.0219 26.4381 31.0219H35.1957C33.7085 33.1935 31.5604 34.5894 29.4124 35.365L40.4833 45.7573C47.919 41.4143 52.8761 33.6588 52.8761 24.8176C52.8761 24.3523 52.8761 24.042 52.8761 23.7318C53.0413 23.1114 53.0413 22.3358 52.8761 21.4052Z" fill="#4285F4"/>
<path d="M14.7062 24.8173C14.7062 23.8867 14.8714 22.956 15.0366 22.0254L4.13094 11.6331C1.48714 15.5108 0 20.0089 0 24.8173C0 29.6257 1.48714 34.1239 4.13094 38.0016L15.2019 27.6093C14.8714 26.6786 14.7062 25.748 14.7062 24.8173Z" fill="#FBBC05"/>
<path d="M47.0927 9.30655C45.2751 7.13502 42.9618 5.27371 40.4832 3.72262C36.3523 1.39598 31.5604 0 26.438 0C17.0195 0 8.75758 4.65327 4.13092 11.6332L15.2018 22.0255C16.5237 17.3722 21.1504 13.9598 26.438 13.9598C27.4294 13.9598 28.4209 14.1149 29.4123 14.4251C30.8994 14.8905 32.2213 15.666 33.7085 16.7518C34.2042 17.2171 34.8651 17.2171 35.5261 16.9069L46.597 11.7883C47.0927 11.6332 47.4232 11.1679 47.4232 10.7025C47.5884 10.2372 47.4232 9.77187 47.0927 9.30655Z" fill="#EA4335"/>
</svg>
