<svg width="34" height="34" viewBox="0 0 34 34" fill="none" xmlns="http://www.w3.org/2000/svg">
<path d="M17.0219 32.3998C8.45175 32.3998 1.51398 25.3761 1.51398 16.6999C1.51398 8.02363 8.45175 1 17.0219 1C25.5921 1 32.5299 8.02363 32.5299 16.6999C32.6115 25.3761 25.6737 32.3998 17.0219 32.3998Z" stroke="white" stroke-width="1.5" stroke-miterlimit="10"/>
<path d="M8.44179 16.1032L8.44146 16.1123V16.1215V16.122V16.1224V16.1229V16.1234V16.1239V16.1244V16.1249V16.1254V16.1259V16.1264V16.1269V16.1274V16.1279V16.1284V16.1289V16.1295V16.13V16.1305V16.131V16.1315V16.132V16.1326V16.1331V16.1336V16.1341V16.1347V16.1352V16.1357V16.1363V16.1368V16.1374V16.1379V16.1384V16.139V16.1395V16.1401V16.1406V16.1412V16.1417V16.1423V16.1428V16.1434V16.1439V16.1445V16.1451V16.1456V16.1462V16.1468V16.1473V16.1479V16.1485V16.149V16.1496V16.1502V16.1508V16.1513V16.1519V16.1525V16.1531V16.1537V16.1542V16.1548V16.1554V16.156V16.1566V16.1572V16.1578V16.1584V16.159V16.1596V16.1602V16.1608V16.1614V16.162V16.1626V16.1632V16.1638V16.1644V16.165V16.1656V16.1662V16.1669V16.1675V16.1681V16.1687V16.1693V16.1699V16.1706V16.1712V16.1718V16.1724V16.1731V16.1737V16.1743V16.1749V16.1756V16.1762V16.1768V16.1775V16.1781V16.1788V16.1794V16.18V16.1807V16.1813V16.182V16.1826V16.1832V16.1839V16.1845V16.1852V16.1858V16.1865V16.1871V16.1878V16.1884V16.1891V16.1897V16.1904V16.1911V16.1917V16.1924V16.193V16.1937V16.1944V16.195V16.1957V16.1964V16.197V16.1977V16.1984V16.199V16.1997V16.2004V16.201V16.2017V16.2024V16.2031V16.2037V16.2044V16.2051V16.2058V16.2064V16.2071V16.2078V16.2085V16.2092V16.2098V16.2105V16.2112V16.2119V16.2126V16.2133V16.214V16.2147V16.2153V16.216V16.2167V16.2174V16.2181V16.2188V16.2195V16.2202V16.2209V16.2216V16.2223V16.223V16.2237V16.2244V16.2251V16.2258V16.2265V16.2272V16.2279V16.2286V16.2293V16.23V16.2307V16.2314V16.2321V16.2328V16.2335V16.2342V16.2349V16.2356V16.2363V16.237V16.2377V16.2384V16.2392V16.2399V16.2406V16.2413V16.242V16.2427V16.2434V16.2441V16.2449V16.2456V16.2463V16.247V16.2477V16.2484V16.2491V16.2499V16.2506V16.2513V16.252V16.2527V16.2534V16.2542V16.2549V16.2556V16.2563V16.257V16.2578V16.2585V16.2592V16.2599V16.2606V16.2614V16.2621V16.2628V16.2635V16.2643V16.265V16.2657V16.2664V16.2671V16.2679V16.2686V16.2693V16.27V16.2708V16.2715V16.2722V16.2729V16.2737V16.2744V16.2751V16.2758V16.2766V16.2773V16.278V16.2787V16.2795V16.2802V16.2809V16.2817V16.2824V16.2831V16.2838V16.2846V16.2853V16.286V16.2867V16.2875V16.2882V16.2889V16.2896V16.2904V16.2911V16.2918V16.2925V16.2933V16.294V16.2947V16.2954V16.2962V16.2969V16.2976V16.2983V16.2991V16.2998V16.3005V16.3012V16.302V16.3027V16.3034V16.3041V16.3049V16.3056V16.3063V16.307V16.3078V16.3085V16.3092V16.3099V16.3107V16.3114V16.3121V16.3128V16.3135V16.3143V16.315V16.3157V16.3164V16.3171V16.3179V16.3186V16.3193V16.32V16.3207V16.3215V16.3222V16.3229V16.3236V16.3243V16.325V16.3258V16.3265V16.3272V16.3279V16.3286V16.3293V16.33V16.3308V16.3315V16.3322V16.3329V16.3336V16.3343V16.335V16.3357V16.3364V16.3371V16.3379V16.3386V16.3393V16.34V16.3407V16.3414V16.3421V16.3428V16.3435V16.3442V16.3449V16.3456V16.3463V16.347V16.3477V16.3484V16.3491V16.3498V16.3505V16.3512V16.3519V16.3526V16.3533V16.354V16.3547V16.3554V16.3561V16.3567V16.3574V16.3581V16.3588V16.3595V16.3602V16.3609V16.3616V16.3622V16.3629V16.3636V16.3643V16.365V16.3657V16.3663V16.367V16.3677V16.3684V16.3691V16.3697V16.3704V16.3711V16.3718V16.3724V16.3731V16.3738V16.3744V16.3751V16.3758V16.3764V16.3771V16.3778V16.3784V16.3791V16.3798V16.3804V16.3811V16.3817V16.3824V16.3831V16.3837V16.3844V16.385V16.3857V16.3863V16.387V16.3876V16.3883V16.3889V16.3896V16.3902V16.3909V16.3915V16.3922V16.3928V16.3934V16.3941V16.3947V16.3954V16.396V16.3966V16.3973V16.3979V16.3985V16.3992V16.3998V16.4004V16.401V16.4017V16.4023V16.4029V16.4035V16.4041V16.4048V16.4054V16.406V16.4066V16.4072V16.4078V16.4085V16.4091V16.4097V16.4103V16.4109V16.4115V16.4121V16.4127V16.4133V16.4139V16.4145V16.4151V16.4157V16.4163V16.4169V16.4175V16.418V16.4186V16.4192V16.4198V16.4204V16.421V16.4216V16.4221V16.4227V16.4233V16.4239V16.4244V16.425V16.4256V16.4261V16.4267V16.4273V16.4278V16.4284V16.429V16.4295V16.4301V16.4306V16.4312V16.4317V16.4323V16.4328V16.4334V16.4339V16.4345V16.435V16.4356V16.4361V16.4367V16.4372V16.4377V16.4383V16.4388V16.4393V16.4398V16.4404V16.4409V16.4414V16.4419V16.4425V16.443V16.4435V16.444V16.4445V16.445V16.4455V16.4461V16.4466V16.4471V16.4476V16.4481V16.4486V16.4491V16.4496V16.45V16.4505V16.451V16.4515V16.452C8.44146 18.0326 8.83359 19.5404 9.62019 20.8936L8.22084 25.2223L7.9213 26.1489L8.84885 25.8524L13.3016 24.4289C14.5414 25.0651 15.9425 25.463 17.43 25.463C22.3675 25.463 26.2553 21.4291 26.2553 16.5346V16.3293L26.1111 16.1833C26.1026 16.1747 26.0953 16.167 26.0891 16.1602C25.9406 11.396 21.9879 7.60627 17.2668 7.60627C12.5086 7.60627 8.61487 11.3723 8.44179 16.1032ZM13.636 21.992L13.4288 21.8468L13.1891 21.9277L11.4542 22.5131L12.0268 20.8269L12.1086 20.5859L11.9619 20.3779C11.2026 19.3017 10.7474 17.997 10.7474 16.5346V16.5332V16.5317V16.5303V16.5288V16.5274V16.5259V16.5245V16.523V16.5216V16.5201V16.5187V16.5172V16.5157V16.5143V16.5128V16.5114V16.5099V16.5085V16.507V16.5056V16.5041V16.5027V16.5012V16.4998V16.4983V16.4969V16.4954V16.494V16.4925V16.4911V16.4896V16.4882V16.4867V16.4853V16.4838V16.4824V16.4809V16.4795V16.478V16.4766V16.4751V16.4737V16.4722V16.4708V16.4693V16.4679V16.4664V16.465V16.4635V16.4621V16.4606V16.4592V16.4577V16.4563V16.4548V16.4534V16.4519V16.4505V16.4491V16.4476V16.4462V16.4447V16.4433V16.4418V16.4404V16.4389V16.4375V16.4361V16.4346V16.4332V16.4317V16.4303V16.4288V16.4274V16.4259V16.4245V16.4231V16.4216V16.4202V16.4187V16.4173V16.4159V16.4144V16.413V16.4115V16.4101V16.4087V16.4072V16.4058V16.4044V16.4029V16.4015V16.4V16.3986V16.3972V16.3957V16.3943V16.3929V16.3914V16.39V16.3886V16.3871V16.3857V16.3843V16.3828V16.3814V16.38V16.3785V16.3771V16.3757V16.3742V16.3728V16.3714V16.37V16.3685V16.3671V16.3657V16.3642V16.3628V16.3614V16.36V16.3585V16.3571V16.3557V16.3543V16.3528V16.3514V16.35V16.3486V16.3472V16.3457V16.3443V16.3429V16.3415V16.3401V16.3386V16.3372V16.3358V16.3344V16.333V16.3316V16.3301V16.3287V16.3273V16.3259V16.3245V16.3231V16.3217V16.3202V16.3188V16.3174V16.316V16.3146V16.3132V16.3118V16.3104V16.309V16.3076V16.3062V16.3047V16.3033V16.3019V16.3005V16.2991V16.2977V16.2963V16.2949V16.2935V16.2921V16.2907V16.2893V16.2879V16.2865V16.2851V16.2837V16.2823V16.2809V16.2796V16.2782V16.2768V16.2754V16.274V16.2726V16.2712V16.2698V16.2684V16.267V16.2656V16.2643V16.2629V16.2615V16.2601V16.2587V16.2573V16.256V16.2546V16.2532V16.2518V16.2504V16.2491V16.2477V16.2463V16.2449V16.2435V16.2422V16.2408V16.2394V16.238V16.2367V16.2353V16.2339V16.2326V16.2312V16.2298V16.2285V16.2271V16.2257V16.2244V16.223V16.2216V16.2203V16.2189V16.2175V16.2162V16.2148V16.2135V16.2121V16.2108V16.2094V16.208V16.2067V16.2053V16.204V16.2026V16.2013V16.1999V16.1986V16.1972V16.1959V16.1945V16.1932V16.1918V16.1905V16.1892V16.1878V16.1865V16.1851V16.1838V16.1825V16.1811V16.1798V16.1784V16.1771V16.1758V16.1744V16.1731V16.1718V16.1705V16.1691V16.1678V16.1665V16.1651V16.1638V16.1625V16.1612V16.1598V16.1585V16.1572V16.1559V16.1546V16.1533V16.1519V16.1506V16.1493V16.148V16.1467V16.1454V16.1441V16.1427V16.1414V16.1401V16.1388V16.1375V16.1362V16.1349V16.1336V16.1323V16.131V16.1297V16.1284V16.1271V16.1258V16.1245V16.1232V16.1219V16.1207V16.1194V16.1181V16.1168V16.1155V16.1142V16.1129V16.1116V16.1104V16.1091V16.1078V16.1065V16.1052V16.104V16.1027V16.1014V16.1001V16.0989V16.0976V16.0963V16.0951V16.0938V16.0925V16.0913V16.09V16.0887V16.0875V16.0862V16.085V16.0837V16.0824V16.0812V16.0799V16.0787V16.0774V16.0762V16.0749V16.0737V16.0724V16.0712V16.0699V16.0687V16.0675V16.0662V16.065V16.0637V16.0625V16.0613V16.06V16.0588V16.0576V16.0563V16.0551V16.0539V16.0526V16.0514V16.0502V16.049V16.0478V16.0465V16.0453V16.0441V16.0429V16.0417V16.0405V16.0392V16.038V16.0368V16.0356V16.0344V16.0332V16.032V16.0308V16.0296V16.0284V16.0272V16.026V16.0248V16.0236V16.0224V16.0212V16.02V16.0188V16.0176V16.0165V16.0153V16.0141V16.0129V16.0117V16.0105V16.0094V16.0082V16.007V16.0058V16.0047V16.0035V16.0023V16.0012V16V15.9988V15.9977V15.9965V15.9953V15.9942V15.993V15.9919V15.9907V15.9896V15.9884V15.9873V15.9861V15.985V15.9838V15.9827V15.9815V15.9804V15.9793V15.9781V15.977V15.9758V15.9747V15.9736V15.9724V15.9713V15.9702V15.9691V15.9679V15.9668V15.9657V15.9646V15.9635V15.9623V15.9612V15.9601V15.959V15.9579V15.9568V15.9557V15.9546V15.9535V15.9524V15.9513V15.9502V15.9491V15.948V15.9469V15.9458V15.9447V15.9436V15.9425V15.9414V15.9403V15.9393V15.9382V15.9371V15.936V15.9349V15.9339V15.9328V15.9317V15.9307V15.9296V15.9285V15.9275V15.9264V15.9253V15.9243V15.9232V15.9222V15.9211V15.9201V15.919V15.918V15.9169V15.9159V15.9148V15.9138V15.9127V15.9117V15.9107V15.9096V15.9086V15.9076V15.9065V15.9055V15.9045V15.9035V15.9024V15.9014V15.9004V15.8994V15.8984V15.8974V15.8969C11.0609 12.6111 13.8606 10.011 17.2668 10.011C20.6619 10.011 23.4716 12.6823 23.7862 16.0616V16.0621V16.0631V16.064V16.065V16.066V16.0669V16.0679V16.0689V16.0698V16.0708V16.0718V16.0728V16.0737V16.0747V16.0757V16.0766V16.0776V16.0786V16.0796V16.0805V16.0815V16.0825V16.0834V16.0844V16.0854V16.0864V16.0873V16.0883V16.0893V16.0903V16.0912V16.0922V16.0932V16.0941V16.0951V16.0961V16.0971V16.098V16.099V16.1V16.101V16.102V16.1029V16.1039V16.1049V16.1059V16.1068V16.1078V16.1088V16.1098V16.1107V16.1117V16.1127V16.1137V16.1147V16.1156V16.1166V16.1176V16.1186V16.1196V16.1205V16.1215V16.1225V16.1235V16.1245V16.1255V16.1264V16.1274V16.1284V16.1294V16.1304V16.1314V16.1323V16.1333V16.1343V16.1353V16.1363V16.1373V16.1383V16.1393V16.1402V16.1412V16.1422V16.1432V16.1442V16.1452V16.1462V16.1472V16.1482V16.1491V16.1501V16.1511V16.1521V16.1531V16.1541V16.1551V16.1561V16.1571V16.1581V16.1591V16.1601V16.1611V16.1621V16.1631V16.1641V16.1651V16.1661V16.1671V16.1681V16.1691V16.1701V16.1711V16.1721V16.1731V16.1741V16.1751V16.1761V16.1771V16.1781V16.1791V16.1801V16.1811V16.1821V16.1831V16.1841V16.1852V16.1862V16.1872V16.1882V16.1892V16.1902V16.1912V16.1922V16.1933V16.1943V16.1953V16.1963V16.1973V16.1983V16.1993V16.2004V16.2014V16.2024V16.2034V16.2044V16.2055V16.2065V16.2075V16.2085V16.2095V16.2106V16.2116V16.2126V16.2136V16.2147V16.2157V16.2167V16.2178V16.2188V16.2198V16.2208V16.2219V16.2229V16.2239V16.225V16.226V16.227V16.2281V16.2291V16.2302V16.2312V16.2322V16.2333V16.2343V16.2353V16.2364V16.2374V16.2385V16.2395V16.2406V16.2416V16.2427V16.2437V16.2447V16.2458V16.2468V16.2479V16.2489V16.25V16.251V16.2521V16.2531V16.2542V16.2553V16.2563V16.2574V16.2584V16.2595V16.2605V16.2616V16.2627V16.2637V16.2648V16.2659V16.2669V16.268V16.269V16.2701V16.2712V16.2722V16.2733V16.2744V16.2755V16.2765V16.2776V16.2787V16.2798V16.2808V16.2819V16.283V16.2841V16.2851V16.2862V16.2873V16.2884V16.2895V16.2905V16.2916V16.2927V16.2938V16.2949V16.296V16.2971V16.2982V16.2992V16.3003V16.3014V16.3025V16.3036V16.3047V16.3058V16.3069V16.308V16.3091V16.3102V16.3113V16.3124V16.3135V16.3146V16.3157V16.3168V16.3179V16.319V16.3202V16.3213V16.3224V16.3235V16.3246V16.3257V16.3268V16.3279V16.3291V16.3302V16.3313V16.3324V16.3335V16.3347V16.3358V16.3369V16.338V16.3392V16.3403V16.3414V16.3426V16.3437V16.3448V16.346V16.3471V16.3482V16.3494V16.3505V16.3516V16.3528V16.3539V16.3551V16.3562V16.3574V16.3585V16.3597V16.3608V16.362V16.3631V16.3643V16.3654V16.3666V16.3677V16.3689V16.37V16.3712V16.3724V16.3735V16.3747V16.3758V16.377V16.3782V16.3793V16.3805V16.3817V16.3829V16.384V16.3852V16.3864V16.3876V16.3887V16.3899V16.3911V16.3923V16.3935V16.3946V16.3958V16.397V16.3982V16.3994V16.4006V16.4018V16.403V16.4042V16.4053V16.4065V16.4077V16.4089V16.4101V16.4113V16.4125V16.4138V16.415V16.4162V16.4174V16.4186V16.4198V16.421V16.4222V16.4234V16.4246V16.4259V16.4271V16.4283V16.4295V16.4308V16.432V16.4332V16.4344V16.4357V16.4369V16.4381V16.4394V16.4406V16.4418V16.4431V16.4443V16.4455V16.4468V16.448V16.4493V16.4505V16.4518V16.453V16.4543V16.4555V16.4568V16.458V16.4593V16.4605V16.4618V16.463V16.4643V16.4656V16.4668V16.4681V16.4694V16.4706V16.4719V16.4732V16.4745V16.4757V16.477V16.4783V16.4796V16.4808V16.4821V16.4834V16.4847V16.486V16.4873V16.4886V16.4899V16.4912V16.4924V16.4937V16.495V16.4963V16.4976V16.4989V16.5002V16.5016V16.5029V16.5042V16.5055V16.5068V16.5081V16.5094V16.5107V16.5121V16.5134V16.5147V16.516V16.5173V16.5187V16.52V16.5213V16.5227V16.524V16.5253V16.5267V16.528V16.5293V16.5307V16.532V16.5334V16.5347V16.5361V16.5374V16.5388V16.5401V16.5415V16.5428V16.5442V16.5456V16.5469V16.5483V16.5496V16.551V16.5524V16.5538V16.5551V16.5565V16.5579V16.5593V16.5606V16.562V16.5634V16.5648V16.5662V16.5676V16.5689V16.5703V16.5717V16.5731V16.5745V16.5759V16.5773V16.5787V16.5801V16.5815V16.5829V16.5843V16.5858V16.5872V16.5886V16.59V16.5914V16.5928V16.5943V16.5957V16.5971V16.5985V16.6V16.6014V16.6028V16.6043V16.6057V16.6071V16.6086V16.61V16.6115V16.6117C23.7075 20.0645 20.8208 23.0583 17.1852 23.0583C15.8121 23.0583 14.6077 22.673 13.636 21.992Z" fill="white" stroke="black"/>
<path d="M18.7883 17.2575L19.144 17.6088L18.7883 17.2575C18.6886 17.3584 18.5332 17.5394 18.397 17.709C18.3252 17.7985 18.2412 17.9062 18.1697 18.0083C18.1607 18.0044 18.1515 18.0005 18.1421 17.9964C17.8481 17.869 17.3359 17.6471 16.7958 17.1642C16.5295 16.8937 16.2804 16.6026 16.0879 16.3589C15.9905 16.2357 15.9095 16.127 15.8494 16.0416C15.8351 16.0213 15.8223 16.0027 15.8109 15.9859C15.8266 15.9667 15.8397 15.9495 15.8494 15.9368C15.8563 15.9277 15.8624 15.9198 15.8679 15.9126C15.8839 15.8914 15.8949 15.8769 15.9082 15.8608C15.9302 15.8341 15.9414 15.8248 15.9439 15.8228L16.0144 15.7871L16.0717 15.7292L16.1533 15.6465L16.1533 15.6465C16.2518 15.5468 16.3023 15.444 16.3245 15.3988C16.3255 15.3966 16.3266 15.3945 16.3275 15.3926C16.3295 15.3886 16.3312 15.3852 16.3327 15.3823L16.3733 15.3411L16.4091 15.2687C16.4521 15.1816 16.4806 15.0908 16.4918 14.9964C16.503 14.9015 16.4949 14.8194 16.482 14.7541C16.4758 14.7231 16.4672 14.6908 16.4608 14.6686V14.5114L16.3569 14.4062C16.344 14.38 16.3266 14.3424 16.3049 14.2932C16.2561 14.1822 16.1948 14.0334 16.129 13.8695C16.0435 13.6564 15.9557 13.4311 15.8813 13.2402C15.8402 13.1347 15.8032 13.0397 15.7729 12.963C15.673 12.7102 15.5196 12.4651 15.2405 12.3591C15.1114 12.3101 14.9954 12.3078 14.9248 12.31C14.896 12.3109 14.8669 12.3131 14.8503 12.3143C14.8479 12.3145 14.8457 12.3146 14.8438 12.3148L14.8241 12.316C14.8198 12.3162 14.8181 12.3162 14.8181 12.3162H14.8177H14.8172H14.8167H14.8162H14.8157H14.8152H14.8147H14.8142H14.8138H14.8133H14.8128H14.8123H14.8118H14.8113H14.8108H14.8102H14.8097H14.8092H14.8087H14.8082H14.8077H14.8072H14.8066H14.8061H14.8056H14.8051H14.8046H14.804H14.8035H14.803H14.8024H14.8019H14.8014H14.8008H14.8003H14.7997H14.7992H14.7986H14.7981H14.7975H14.797H14.7964H14.7959H14.7953H14.7948H14.7942H14.7937H14.7931H14.7925H14.792H14.7914H14.7908H14.7903H14.7897H14.7891H14.7885H14.788H14.7874H14.7868H14.7862H14.7856H14.785H14.7844H14.7839H14.7833H14.7827H14.7821H14.7815H14.7809H14.7803H14.7797H14.7791H14.7785H14.7779H14.7773H14.7767H14.776H14.7754H14.7748H14.7742H14.7736H14.773H14.7724H14.7717H14.7711H14.7705H14.7699H14.7692H14.7686H14.768H14.7673H14.7667H14.7661H14.7654H14.7648H14.7642H14.7635H14.7629H14.7622H14.7616H14.7609H14.7603H14.7596H14.759H14.7583H14.7577H14.757H14.7564H14.7557H14.755H14.7544H14.7537H14.753H14.7524H14.7517H14.751H14.7504H14.7497H14.749H14.7483H14.7477H14.747H14.7463H14.7456H14.7449H14.7443H14.7436H14.7429H14.7422H14.7415H14.7408H14.7401H14.7394H14.7387H14.738H14.7373H14.7366H14.7359H14.7352H14.7345H14.7338H14.7331H14.7324H14.7317H14.731H14.7303H14.7296H14.7289H14.7281H14.7274H14.7267H14.726H14.7253H14.7246H14.7238H14.7231H14.7224H14.7216H14.7209H14.7202H14.7195H14.7187H14.718H14.7173H14.7165H14.7158H14.715H14.7143H14.7136H14.7128H14.7121H14.7113H14.7106H14.7098H14.7091H14.7083H14.7076H14.7068H14.7061H14.7053H14.7046H14.7038H14.7031H14.7023H14.7015H14.7008H14.7H14.6992H14.6985H14.6977H14.6969H14.6962H14.6954H14.6946H14.6939H14.6931H14.6923H14.6915H14.6908H14.69H14.6892H14.6884H14.6876H14.6869H14.6861H14.6853H14.6845H14.6837H14.6829H14.6821H14.6813H14.6806H14.6798H14.679H14.6782H14.6774H14.6766H14.6758H14.675H14.6742H14.6734H14.6726H14.6718H14.671H14.6702H14.6694H14.6686H14.6677H14.6669H14.6661H14.6653H14.6645H14.6637H14.6629H14.6621H14.6612H14.6604H14.6596H14.6588H14.658H14.6571H14.6563H14.6555H14.6547H14.6538H14.653H14.6522H14.6514H14.6505H14.6497H14.6489H14.648H14.6472H14.6464H14.6455H14.6447H14.6439H14.643H14.6422H14.6413H14.6405H14.6396H14.6388H14.638H14.6371H14.6363H14.6354H14.6346H14.6337H14.6329H14.632H14.6312H14.6303H14.6295H14.6286H14.6278H14.6269H14.6261H14.6252H14.6243H14.6235H14.6226H14.6218H14.6209H14.62H14.6192H14.6183H14.6174H14.6166H14.6157H14.6148H14.614H14.6131H14.6122H14.6114H14.6105H14.6096H14.6088H14.6079H14.607H14.6061H14.6053H14.6044H14.6035H14.6026H14.6017H14.6009H14.6H14.5991H14.5982H14.5973H14.5965H14.5956H14.5947H14.5938H14.5929H14.592H14.5911H14.5903H14.5894H14.5885H14.5876H14.5867H14.5858H14.5849H14.584H14.5831H14.5822H14.5813H14.5804H14.5795H14.5787H14.5778H14.5769H14.576H14.5751H14.5742H14.5733H14.5724H14.5715H14.5705H14.5696H14.5687H14.5678H14.5669H14.566H14.5651H14.5642H14.5633H14.5624H14.5615H14.5606H14.5597H14.5588H14.5578H14.5569H14.556H14.5551H14.5542H14.5533H14.5524H14.5514H14.5505H14.5496H14.5487H14.5478H14.5469H14.5459H14.545H14.5441H14.5432H14.5423H14.5413H14.5404H14.5395H14.5386H14.5377H14.5367H14.5358H14.5349H14.534H14.533H14.5321H14.5312H14.5303H14.5293H14.5284H14.5275H14.5265H14.5256H14.5247H14.5238H14.5228H14.5219H14.521H14.52H14.5191H14.5182H14.5172H14.5163H14.5154H14.5144H14.5135H14.5126H14.5116H14.5107H14.5098H14.5088H14.5079H14.5069H14.506H14.5051H14.5041H14.5032H14.5023H14.5013H14.5004H14.4994H14.4985H14.4976H14.4966H14.4957H14.4947H14.4938H14.4928H14.4919H14.491H14.49H14.4891H14.4881H14.4872H14.4862H14.4853H14.4843H14.4834H14.4825H14.4815H14.4806H14.4796H14.4787H14.4777H14.4768H14.4758H14.4749H14.4739H14.473H14.472H14.4711H14.4701H14.4692H14.4682H14.4673H14.4663H14.4654H14.4644H14.4635H14.4625H14.4616H14.4606H14.4597H14.4587H14.4578H14.4568H14.4559H14.4549H14.454H14.453H14.4521H14.4511H14.4502H14.4492H14.4482H14.4473H14.4463H14.4454H14.4444H14.4435H14.4425H14.4416H14.4406H14.4397H14.4387H14.4378H14.4368H14.4358H14.4349H14.4339H14.433H14.432H14.4311H14.4301H14.4292H14.4282H14.4272H14.4263H14.4253H14.4244H14.4234H14.4225H14.4215H14.4205H14.4196H14.4186H14.4177H14.4167H14.4158H14.4148H14.4139H14.4129H14.4119H14.411H14.41C14.0776 12.3162 13.7989 12.4878 13.559 12.6497L13.5178 12.6774L13.483 12.7128L13.482 12.7137C13.2972 12.9008 12.6041 13.6025 12.6041 14.7994C12.6041 14.9724 12.6324 15.1355 12.6528 15.2493C12.6778 15.3887 12.6857 15.4345 12.6857 15.4604V15.5406L12.7108 15.6168C12.8463 16.0285 13.0255 16.3905 13.181 16.6603C13.299 16.8652 13.4189 17.0436 13.5074 17.1519C13.6285 17.3638 13.9866 17.9159 14.5403 18.5239C15.1702 19.2157 16.0885 20.0194 17.2486 20.4711C18.3083 20.8837 18.8961 21.0527 19.2773 21.0913C19.6342 21.1275 19.8918 21.0303 19.9742 20.9966C20.1333 20.9824 20.2912 20.9352 20.4293 20.8804C20.6022 20.8116 20.7793 20.7166 20.9439 20.6055C21.251 20.3983 21.6074 20.0717 21.7411 19.6657C21.8348 19.3812 21.885 19.1111 21.898 18.8876C21.9044 18.7771 21.9025 18.6651 21.8866 18.5619C21.8805 18.5223 21.8682 18.4507 21.8359 18.3711C21.813 18.2346 21.7539 18.0934 21.6321 17.9701C21.495 17.8313 21.3188 17.7599 21.1812 17.7135C21.0971 17.6851 20.8264 17.559 20.5165 17.4075C20.224 17.2646 19.941 17.1213 19.8596 17.0801C19.7201 17.0095 19.5365 16.9519 19.3261 16.9785C19.1103 17.0058 18.9306 17.1135 18.7883 17.2575ZM18.3227 18.0777C18.3227 18.0778 18.3215 18.0774 18.319 18.0764C18.3214 18.0771 18.3226 18.0776 18.3227 18.0777Z" fill="white" stroke="black"/>
</svg>
