<svg width="35" height="46" viewBox="0 0 35 46" fill="none" xmlns="http://www.w3.org/2000/svg">
<path d="M27.2027 17.2588C27.8084 17.2609 28.3984 17.069 28.8833 16.7121C29.3682 16.3552 29.7216 15.8528 29.8901 15.2808C30.0585 14.7088 30.0328 14.0985 29.8169 13.5421C29.601 12.9858 29.2066 12.5137 28.6934 12.1974C28.1801 11.8811 27.5761 11.7377 26.9726 11.789C26.369 11.8403 25.7989 12.0834 25.3486 12.4816C24.8981 12.8798 24.592 13.4113 24.4764 13.9958C24.3607 14.5803 24.4419 15.186 24.7078 15.721L21.2214 19.148C20.5676 18.7115 19.8028 18.4631 19.0132 18.4306C18.2235 18.3982 17.4403 18.583 16.7517 18.9643L14.8176 16.7116C15.3594 16.0237 15.6247 15.1638 15.5631 14.2959C15.5014 13.4281 15.117 12.6129 14.4832 12.0057C13.8494 11.3985 13.0104 11.0417 12.1262 11.0034C11.242 10.9652 10.3744 11.248 9.68876 11.7981C9.00306 12.3481 8.54726 13.127 8.4082 13.9862C8.26914 14.8453 8.45654 15.7248 8.93469 16.4569C9.41284 17.189 10.1483 17.7225 11.0009 17.9558C11.8535 18.1892 12.7637 18.106 13.558 17.7221L15.5084 19.9948C15.0319 20.5782 14.7239 21.2769 14.6167 22.0176C14.5094 22.7583 14.6069 23.5137 14.8989 24.2046L12.1236 26.01C11.5939 25.5133 10.8992 25.2218 10.1678 25.1893C9.43643 25.157 8.71786 25.3858 8.1448 25.8336C7.57175 26.2815 7.18295 26.9181 7.05023 27.6258C6.91751 28.3335 7.04984 29.0645 7.42277 29.6838C7.7957 30.3031 8.38402 30.7687 9.07907 30.9948C9.77409 31.2208 10.5289 31.192 11.204 30.9136C11.8791 30.6352 12.4288 30.126 12.7517 29.4802C13.0746 28.8343 13.1488 28.0954 12.9606 27.4L15.805 25.5586C16.5181 26.276 17.4701 26.717 18.4868 26.8008L18.8078 29.7365C18.1901 29.9777 17.6809 30.4286 17.3729 31.0075C17.0648 31.5864 16.9783 32.2547 17.1291 32.891C17.2799 33.5273 17.658 34.0892 18.1947 34.4747C18.7313 34.8601 19.3908 35.0434 20.0533 34.9913C20.7158 34.9392 21.3373 34.6552 21.8048 34.1908C22.2722 33.7263 22.5546 33.1125 22.6006 32.4608C22.6466 31.809 22.4531 31.1627 22.0553 30.6393C21.6576 30.1159 21.082 29.7502 20.4331 29.6087L20.0918 26.6011C20.9398 26.3408 21.6841 25.827 22.221 25.1313L24.1226 26.0539C24.1364 26.5655 24.3314 27.0563 24.674 27.4415C25.0167 27.8268 25.4854 28.0824 25.9993 28.1643C26.5132 28.2461 27.04 28.1491 27.4888 27.8898C27.9377 27.6306 28.2804 27.2255 28.4578 26.7443C28.6351 26.2632 28.6361 25.7363 28.4605 25.2546C28.2848 24.7729 27.9436 24.3665 27.4957 24.1057C27.0478 23.8449 26.5213 23.746 26.0071 23.826C25.4929 23.9061 25.0233 24.1601 24.6793 24.5441L22.9402 23.7014C23.1044 23.1207 23.1378 22.5119 23.0381 21.9173C22.9385 21.3227 22.7082 20.7566 22.3632 20.2584L25.8252 16.8913C26.2435 17.1306 26.7186 17.2574 27.2027 17.2588ZM10.0554 29.5288C9.78128 29.5288 9.5134 29.449 9.28554 29.2993C9.05768 29.1496 8.88008 28.9369 8.77521 28.6881C8.67034 28.4392 8.6429 28.1653 8.69636 27.9011C8.74983 27.6369 8.88179 27.3942 9.07557 27.2038C9.26935 27.0133 9.51624 26.8836 9.78502 26.831C10.0538 26.7785 10.3324 26.8054 10.5856 26.9085C10.8388 27.0116 11.0552 27.1861 11.2074 27.4101C11.3597 27.6341 11.441 27.8975 11.441 28.1668C11.4399 28.5277 11.2935 28.8736 11.0339 29.1287C10.7743 29.384 10.4225 29.5278 10.0554 29.5288ZM26.3534 25.4029C26.4732 25.4029 26.5902 25.4378 26.6898 25.5032C26.7893 25.5686 26.8669 25.6615 26.9127 25.7703C26.9586 25.879 26.9706 25.9987 26.9472 26.1141C26.9238 26.2295 26.8662 26.3356 26.7815 26.4188C26.6969 26.5021 26.589 26.5587 26.4715 26.5817C26.3541 26.6047 26.2323 26.5929 26.1217 26.5478C26.0111 26.5028 25.9165 26.4265 25.85 26.3286C25.7835 26.2308 25.748 26.1157 25.748 25.998C25.748 25.8402 25.8117 25.6888 25.9253 25.5772C26.0388 25.4656 26.1928 25.4029 26.3534 25.4029ZM27.2027 13.3964C27.3945 13.396 27.5834 13.4428 27.7521 13.5325C27.9209 13.6222 28.0642 13.7519 28.1688 13.91C28.2736 14.068 28.3363 14.2493 28.3515 14.4372C28.3667 14.6252 28.3339 14.814 28.2559 14.9863C28.1779 15.1586 28.0573 15.3089 27.905 15.4237C27.7528 15.5385 27.5738 15.614 27.3843 15.6433C27.1948 15.6727 27.0008 15.655 26.8201 15.5918C26.6393 15.5287 26.4775 15.422 26.3494 15.2817L26.329 15.2577C26.1519 15.0554 26.054 14.7977 26.0527 14.5308C26.0527 14.2306 26.1737 13.9427 26.3893 13.7301C26.6048 13.5175 26.8973 13.3975 27.2027 13.3964ZM10.035 14.5507C10.035 14.1697 10.1498 13.7972 10.3649 13.4802C10.5801 13.1632 10.8859 12.9159 11.2438 12.7696C11.6017 12.6232 11.9957 12.5843 12.3761 12.6578C12.7564 12.7313 13.1061 12.9138 13.3811 13.1824C13.656 13.451 13.8439 13.7937 13.921 14.1671C13.9981 14.5405 13.961 14.928 13.8143 15.2808C13.6676 15.6335 13.418 15.9356 13.0968 16.149C12.7757 16.3624 12.3974 16.4776 12.0098 16.4799C11.7512 16.481 11.4949 16.4319 11.2556 16.3354C11.0164 16.239 10.7988 16.0972 10.6154 15.9179C10.4319 15.7388 10.2862 15.5258 10.1867 15.2912C10.0871 15.0566 10.0356 14.805 10.035 14.5507ZM20.9695 32.2608C20.9695 32.4844 20.902 32.703 20.7757 32.8889C20.6493 33.0747 20.4697 33.2196 20.2596 33.3052C20.0495 33.3907 19.8183 33.4131 19.5952 33.3695C19.3722 33.3259 19.1672 33.2182 19.0064 33.0601C18.8456 32.902 18.7361 32.7006 18.6917 32.4814C18.6473 32.2621 18.6701 32.0348 18.7572 31.8283C18.8442 31.6217 18.9916 31.4452 19.1807 31.321C19.3698 31.1968 19.5921 31.1305 19.8196 31.1305C20.1242 31.1316 20.4161 31.251 20.6315 31.4627C20.8469 31.6745 20.9684 31.9614 20.9695 32.2608ZM18.8362 25.2072C18.315 25.2072 17.8055 25.0553 17.372 24.7708C16.9385 24.4864 16.6005 24.082 16.4006 23.6088C16.2008 23.1356 16.1481 22.6148 16.2492 22.1122C16.3503 21.6095 16.6007 21.1477 16.9686 20.7848C17.3367 20.422 17.8058 20.1744 18.3168 20.0735C18.8278 19.9726 19.3578 20.0228 19.8398 20.2178C20.3218 20.4128 20.7342 20.7438 21.025 21.169C21.3157 21.5942 21.4717 22.0946 21.4733 22.607C21.4744 22.9481 21.407 23.286 21.2749 23.6014C21.1429 23.9168 20.9488 24.2035 20.7038 24.4451C20.4589 24.6866 20.1678 24.8783 19.8473 25.0091C19.5268 25.1399 19.1832 25.2072 18.8362 25.2072Z" fill="#252323"/>
<path d="M23.1447 5.61061V5.73205H22.5525C22.5689 5.81301 22.5772 5.89397 22.5772 5.97493C22.5772 6.05589 22.5772 6.13685 22.5772 6.21781H18.2591C18.2591 6.42831 18.1522 6.59024 17.9384 6.70358C17.8397 6.73597 17.7656 6.75216 17.7163 6.75216H12.6827C12.6169 6.75216 12.5511 6.75216 12.4853 6.75216C12.4195 6.73597 12.3537 6.71977 12.2879 6.70358H8.26596V6.82502H10.4373C10.4209 6.90598 10.4126 6.98695 10.4126 7.06791C10.4126 7.14887 10.4126 7.22983 10.4126 7.31079H9.54903C9.53258 7.34318 9.52435 7.38366 9.52435 7.43223C9.52435 7.48081 9.52435 7.52129 9.52435 7.55367H9.59838V7.79656H9.22826V8.28232H10.4126V8.40376H6.41537V8.64665H7.67377V9.13242H10.2152V9.25386H9.17891V9.3753H8.5127V9.86106H10.4126C10.4291 9.92583 10.4373 9.9906 10.4373 10.0554C10.4373 10.1039 10.4373 10.1606 10.4373 10.2254H11.1282V10.3468H7.94519V10.5897H7.22963V10.7112H10.4373V10.7354H15.3722C15.6848 10.7354 15.8657 10.8893 15.915 11.1969H19.5669V11.5612H19.3942L19.3448 12.047H19.0734L19.0487 12.2899H19.6902C19.6902 12.3385 19.682 12.379 19.6656 12.4113H19.5175C19.5011 12.4437 19.4929 12.4842 19.4929 12.5328H20.3071L20.2331 12.8971H19.4682C19.4682 12.9133 19.46 12.9295 19.4435 12.9457C19.4435 12.9619 19.4435 12.9862 19.4435 13.0185H19.2461C19.2297 13.0833 19.205 13.1481 19.1721 13.2129C19.1556 13.2614 19.1392 13.3181 19.1227 13.3829H19.4188C19.4188 13.3991 19.4024 13.4395 19.3695 13.5043H18.876C18.8431 13.5853 18.802 13.6662 18.7526 13.7472C18.7197 13.8282 18.6786 13.9091 18.6292 13.9901H19.1227L18.9007 14.3544H19.1227L18.876 14.7187H18.7279C18.6621 14.7997 18.5881 14.8807 18.5059 14.9616C18.4401 15.0426 18.366 15.1235 18.2838 15.2045H18.0864C18.07 15.2207 18.0535 15.2369 18.0371 15.2531C18.0206 15.2693 17.9959 15.2936 17.963 15.3259H16.902L16.7787 15.4474H21.7382C21.6395 15.5283 21.5408 15.6093 21.4421 15.6903C21.3434 15.7712 21.2365 15.8522 21.1214 15.9332H20.8499C20.6855 16.0465 20.4881 16.1679 20.2578 16.2975H15.0514C14.8869 16.3946 14.7142 16.4837 14.5333 16.5646C14.3523 16.6294 14.1714 16.7023 13.9904 16.7832H18.0617C18.0124 16.7994 17.9548 16.8156 17.889 16.8318C17.8397 16.848 17.7821 16.8723 17.7163 16.9047H16.7293C16.6635 16.9209 16.5977 16.9371 16.5319 16.9533C16.4661 16.9695 16.4003 16.9937 16.3345 17.0261H14.558C13.9658 17.188 13.3571 17.3095 12.732 17.3904H13.1268C12.8636 17.4228 12.5922 17.4471 12.3126 17.4633C12.0329 17.4795 11.7533 17.4876 11.4736 17.4876C11.1611 17.4876 10.8568 17.4795 10.5607 17.4633C10.281 17.4471 10.0014 17.4228 9.72175 17.3904H9.32696C8.66897 17.3095 8.06033 17.188 7.50105 17.0261H9.27761C9.21181 16.9937 9.14601 16.9695 9.08021 16.9533C9.03086 16.9371 8.97329 16.9209 8.90749 16.9047H9.91915L9.5737 16.7832H5.50241C5.33792 16.7023 5.16519 16.6294 4.98425 16.5646C4.81975 16.4837 4.65525 16.3946 4.49076 16.2975H9.72175C9.62305 16.2327 9.52436 16.176 9.42566 16.1275C9.32696 16.0627 9.23649 15.9979 9.15424 15.9332H9.42566C9.22826 15.7874 9.03909 15.6255 8.85814 15.4474H3.8739C3.85745 15.415 3.841 15.3907 3.82455 15.3745C3.8081 15.3583 3.78342 15.3421 3.75052 15.3259H4.8362C4.81975 15.2936 4.79508 15.2693 4.76218 15.2531C4.74573 15.2369 4.72928 15.2207 4.71283 15.2045H4.91022C4.76218 15.0426 4.62236 14.8807 4.49076 14.7187H4.63881L4.41673 14.3544H4.19466L3.97259 13.9901H3.4791L3.25703 13.5043H3.7752L3.72585 13.3829H3.40508C3.38863 13.3181 3.37218 13.2614 3.35573 13.2129C3.33928 13.1481 3.31461 13.0833 3.28171 13.0185H3.4791L3.42975 12.8971H4.19466C4.17821 12.8323 4.16176 12.7757 4.14532 12.7271C4.12887 12.6623 4.11242 12.5976 4.09597 12.5328H3.70117C3.68472 12.5004 3.6765 12.4599 3.6765 12.4113H3.25703C3.24058 12.379 3.23236 12.3385 3.23236 12.2899H3.25703C3.25703 12.2251 3.24058 12.1442 3.20768 12.047H1.80124L1.72721 11.5612H3.62715C3.6107 11.4965 3.60248 11.4398 3.60248 11.3912C3.60248 11.3265 3.59425 11.2617 3.5778 11.1969H4.04662C4.04662 11.1483 4.04662 11.0998 4.04662 11.0512C4.04662 11.0026 4.03839 10.954 4.02194 10.9055V10.7112H0.814258V10.5897H1.52982V10.3468H4.71283V10.2254H4.02194C4.02194 10.1606 4.01372 10.1039 3.99727 10.0554C3.99727 9.9906 3.99727 9.92583 3.99727 9.86106H2.09733V9.3753H2.76354V9.25386H3.79987V9.13242H1.2584V8.64665H0V8.40376H3.99727V8.28232H2.81289V7.79656H3.18301V7.55367H3.10899V7.31079H3.99727V6.82502H1.85059V6.70358H6.58809V6.58214C6.60454 6.51737 6.61276 6.4607 6.61276 6.41212C6.61276 6.34735 6.61276 6.28258 6.61276 6.21781H5.30502C5.30502 6.13685 5.30502 6.05589 5.30502 5.97493C5.32147 5.89397 5.33792 5.81301 5.35437 5.73205H6.14395C6.1604 5.69966 6.16862 5.65918 6.16862 5.61061H1.061C1.07745 5.57822 1.08568 5.53774 1.08568 5.48916C1.08568 5.44059 1.0939 5.40011 1.11035 5.36772H5.60111L5.72448 4.88196H4.71283L4.78685 4.63907H3.13366L3.18301 4.51763H3.72585C3.7423 4.48525 3.75875 4.44477 3.7752 4.39619C3.79165 4.34761 3.8081 4.30713 3.82455 4.27475H3.55313L3.65183 4.03186H3.7752C3.8081 3.9671 3.841 3.91042 3.8739 3.86185C3.90679 3.79708 3.93147 3.73231 3.94792 3.66754H3.97259L4.19466 3.30321H4.12064C4.15354 3.23845 4.18644 3.18177 4.21934 3.1332C4.26869 3.06843 4.31804 3.00366 4.36739 2.93889H4.16999C4.23579 2.85793 4.30159 2.77697 4.36739 2.69601C4.43318 2.59885 4.49898 2.51789 4.56478 2.45312H4.34271C4.35916 2.42074 4.37561 2.39645 4.39206 2.38026C4.40851 2.36406 4.42496 2.34787 4.44141 2.33168H4.19466L4.31804 2.21024H4.26869C4.30159 2.17785 4.32626 2.15357 4.34271 2.13737C4.35916 2.12118 4.37561 2.10499 4.39206 2.0888H3.94792C3.98082 2.05641 4.02194 2.01593 4.07129 1.96736C4.12064 1.91878 4.16999 1.8783 4.21934 1.84591H4.81153C4.89377 1.78115 4.97602 1.72447 5.05827 1.6759C5.14052 1.61113 5.22277 1.54636 5.30502 1.48159H5.0336L5.23099 1.36015H4.81153C4.84443 1.32776 4.87733 1.30347 4.91022 1.28728C4.94312 1.27109 4.97602 1.2549 5.00892 1.23871H6.292C6.40714 1.17394 6.52229 1.11726 6.63744 1.06869C6.75259 1.00392 6.86773 0.939149 6.98288 0.87438H6.90886C7.00756 0.825803 7.10625 0.785323 7.20495 0.752939C7.30365 0.704362 7.40235 0.663881 7.50105 0.631497H7.96986C8.01921 0.599112 8.06856 0.574824 8.11791 0.558632C8.18371 0.54244 8.24951 0.526248 8.3153 0.510056H7.57507C8.06856 0.331941 8.59495 0.210499 9.15424 0.14573H9.82045C10.462 0.0485765 11.1364 0 11.8438 0C12.5346 0 13.2009 0.0485765 13.8424 0.14573H13.2009C13.7437 0.210499 14.2865 0.331941 14.8294 0.510056H15.5696C15.6354 0.526248 15.693 0.54244 15.7423 0.558632C15.8081 0.574824 15.8739 0.599112 15.9397 0.631497H15.4709C15.7177 0.712458 15.9233 0.793419 16.0878 0.87438H16.1618C16.2934 0.939149 16.4168 1.00392 16.5319 1.06869C16.6471 1.11726 16.7622 1.17394 16.8774 1.23871H15.619C15.6519 1.2549 15.6848 1.27109 15.7177 1.28728C15.7506 1.30347 15.7835 1.32776 15.8164 1.36015H16.2358C16.2687 1.37634 16.3016 1.39253 16.3345 1.40872C16.3674 1.42492 16.3921 1.4492 16.4085 1.48159H16.68L17.1734 1.84591H16.5566L16.8527 2.0888H17.2968L17.4449 2.21024H17.4695L17.5929 2.33168H17.8397L17.963 2.45312H18.1851C18.2509 2.51789 18.3167 2.59885 18.3825 2.69601C18.4483 2.77697 18.5141 2.85793 18.5799 2.93889H18.7526C18.802 3.00366 18.8431 3.06843 18.876 3.1332C18.9253 3.18177 18.9665 3.23845 18.9994 3.30321H19.0734C19.1063 3.36798 19.1392 3.43275 19.1721 3.49752C19.205 3.5461 19.2379 3.60277 19.2708 3.66754H19.2214C19.2543 3.73231 19.2872 3.79708 19.3201 3.86185C19.353 3.91042 19.3777 3.9671 19.3942 4.03186H19.2708L19.3448 4.27475H19.6162L19.6902 4.51763H19.1474C19.1474 4.53382 19.1474 4.55002 19.1474 4.56621C19.1639 4.5824 19.1721 4.60669 19.1721 4.63907H20.8253C20.8253 4.70384 20.8417 4.7848 20.8746 4.88196H18.6292L18.7033 5.36772H20.1344L20.1591 5.61061H23.1447ZM11.8191 4.88196H13.571C13.3078 4.7848 13.0117 4.73623 12.6827 4.73623C12.3537 4.73623 12.0658 4.7848 11.8191 4.88196ZM16.0878 6.0478C16.0713 5.98303 16.0549 5.92635 16.0384 5.87778C16.022 5.8292 15.9973 5.78062 15.9644 5.73205H16.5566L16.4826 5.61061H13.5216C13.5052 5.56203 13.4805 5.52155 13.4476 5.48916C13.4147 5.44059 13.3818 5.40011 13.3489 5.36772H7.74779C7.73134 5.40011 7.70667 5.44059 7.67377 5.48916C7.65732 5.52155 7.63264 5.56203 7.59974 5.61061H12.7074L12.658 5.73205H11.8684C11.8355 5.79682 11.8109 5.87778 11.7944 5.97493C11.778 6.05589 11.7615 6.13685 11.7451 6.21781H16.1618L16.0878 6.0478ZM13.1762 11.1969H10.0178L10.0919 11.5612H8.19193C8.22483 11.6584 8.25773 11.7475 8.29063 11.8284C8.32353 11.8932 8.36465 11.9661 8.414 12.047H9.82045C9.85335 12.0956 9.88625 12.1442 9.91915 12.1927C9.95205 12.2251 9.98495 12.2575 10.0178 12.2899H9.9685L10.0919 12.4113H10.5113C10.5442 12.4275 10.5771 12.4518 10.61 12.4842C10.6429 12.5004 10.6758 12.5166 10.7087 12.5328H11.1035C11.3832 12.6785 11.7204 12.7514 12.1152 12.7514C12.51 12.7514 12.839 12.6785 13.1022 12.5328H12.2879L12.4853 12.4113H12.6333L12.7814 12.2899H12.1399C12.1728 12.2575 12.2057 12.2251 12.2386 12.1927C12.2879 12.1442 12.3208 12.0956 12.3372 12.047H12.6087C12.7074 11.9013 12.7896 11.7394 12.8554 11.5612H13.0281L13.0775 11.4398C13.1104 11.3427 13.1433 11.2617 13.1762 11.1969Z" fill="#231414"/>
<path d="M35 34.123V34.2444H34.4078C34.4243 34.3254 34.4325 34.4064 34.4325 34.4873C34.4325 34.5683 34.4325 34.6492 34.4325 34.7302H30.1145C30.1145 34.9407 30.0075 35.1026 29.7937 35.216C29.695 35.2484 29.621 35.2646 29.5716 35.2646H24.538C24.4722 35.2646 24.4064 35.2646 24.3406 35.2646C24.2748 35.2484 24.209 35.2322 24.1432 35.216H20.1213V35.3374H22.2926C22.2762 35.4184 22.268 35.4993 22.268 35.5803C22.268 35.6613 22.268 35.7422 22.268 35.8232H21.4044C21.3879 35.8556 21.3797 35.8961 21.3797 35.9446C21.3797 35.9932 21.3797 36.0337 21.3797 36.0661H21.4537V36.309H21.0836V36.7947H22.268V36.9162H18.2707V37.159H19.5291V37.6448H22.0706V37.7663H21.0342V37.8877H20.368V38.3735H22.268C22.2844 38.4382 22.2926 38.503 22.2926 38.5678C22.2926 38.6163 22.2926 38.673 22.2926 38.7378H22.9835V38.8592H19.8005V39.1021H19.085V39.2236H22.2926V39.2478H27.2275C27.5401 39.2478 27.721 39.4017 27.7704 39.7093H31.4222V40.0736H31.2495L31.2001 40.5594H30.9287L30.904 40.8023H31.5456C31.5456 40.8509 31.5373 40.8914 31.5209 40.9237H31.3728C31.3564 40.9561 31.3482 40.9966 31.3482 41.0452H32.1624L32.0884 41.4095H31.3235C31.3235 41.4257 31.3153 41.4419 31.2988 41.4581C31.2988 41.4743 31.2988 41.4986 31.2988 41.5309H31.1014C31.085 41.5957 31.0603 41.6605 31.0274 41.7253C31.011 41.7738 30.9945 41.8305 30.9781 41.8953H31.2742C31.2742 41.9115 31.2577 41.9519 31.2248 42.0167H30.7313C30.6984 42.0977 30.6573 42.1786 30.6079 42.2596C30.575 42.3406 30.5339 42.4215 30.4846 42.5025H30.9781L30.756 42.8668H30.9781L30.7313 43.2311H30.5833C30.5175 43.3121 30.4434 43.393 30.3612 43.474C30.2954 43.555 30.2214 43.6359 30.1391 43.7169H29.9417C29.9253 43.7331 29.9088 43.7493 29.8924 43.7655C29.8759 43.7817 29.8513 43.806 29.8184 43.8383H28.7574L28.634 43.9598H33.5936C33.4949 44.0407 33.3962 44.1217 33.2975 44.2027C33.1988 44.2836 33.0918 44.3646 32.9767 44.4455H32.7053C32.5408 44.5589 32.3434 44.6803 32.1131 44.8099H26.9068C26.7423 44.907 26.5695 44.9961 26.3886 45.077C26.2077 45.1418 26.0267 45.2147 25.8458 45.2956H29.9171C29.8677 45.3118 29.8101 45.328 29.7443 45.3442C29.695 45.3604 29.6374 45.3847 29.5716 45.4171H28.5846C28.5188 45.4333 28.453 45.4495 28.3872 45.4657C28.3214 45.4818 28.2556 45.5061 28.1898 45.5385H26.4133C25.8211 45.7004 25.2124 45.8219 24.5874 45.9028H24.9822C24.719 45.9352 24.4475 45.9595 24.1679 45.9757C23.8883 45.9919 23.6086 46 23.329 46C23.0164 46 22.7121 45.9919 22.416 45.9757C22.1364 45.9595 21.8567 45.9352 21.5771 45.9028H21.1823C20.5243 45.8219 19.9157 45.7004 19.3564 45.5385H21.1329C21.0671 45.5061 21.0013 45.4818 20.9355 45.4657C20.8862 45.4495 20.8286 45.4333 20.7628 45.4171H21.7745L21.429 45.2956H17.3577C17.1932 45.2147 17.0205 45.1418 16.8396 45.077C16.6751 44.9961 16.5106 44.907 16.3461 44.8099H21.5771C21.4784 44.7451 21.3797 44.6884 21.281 44.6399C21.1823 44.5751 21.0918 44.5103 21.0096 44.4455H21.281C21.0836 44.2998 20.8944 44.1379 20.7135 43.9598H15.7292C15.7128 43.9274 15.6963 43.9031 15.6799 43.8869C15.6634 43.8707 15.6387 43.8545 15.6058 43.8383H16.6915C16.6751 43.806 16.6504 43.7817 16.6175 43.7655C16.6011 43.7493 16.5846 43.7331 16.5682 43.7169H16.7655C16.6175 43.555 16.4777 43.3931 16.3461 43.2311H16.4941L16.2721 42.8668H16.05L15.8279 42.5025H15.3344L15.1124 42.0167H15.6305L15.5812 41.8953H15.2604C15.244 41.8305 15.2275 41.7738 15.2111 41.7253C15.1946 41.6605 15.1699 41.5957 15.137 41.5309H15.3344L15.2851 41.4095H16.05C16.0335 41.3447 16.0171 41.2881 16.0006 41.2395C15.9842 41.1747 15.9677 41.1099 15.9513 41.0452H15.5565C15.54 41.0128 15.5318 40.9723 15.5318 40.9237H15.1124C15.0959 40.8914 15.0877 40.8509 15.0877 40.8023H15.1124C15.1124 40.7375 15.0959 40.6566 15.063 40.5594H13.6566L13.5825 40.0736H15.4825C15.466 40.0089 15.4578 39.9522 15.4578 39.9036C15.4578 39.8389 15.4496 39.7741 15.4331 39.7093H15.9019C15.9019 39.6607 15.9019 39.6122 15.9019 39.5636C15.9019 39.515 15.8937 39.4664 15.8773 39.4179V39.2236H12.6696V39.1021H13.3851V38.8592H16.5682V38.7378H15.8773C15.8773 38.673 15.869 38.6163 15.8526 38.5678C15.8526 38.503 15.8526 38.4382 15.8526 38.3735H13.9527V37.8877H14.6189V37.7663H15.6552V37.6448H13.1137V37.159H11.8553V36.9162H15.8526V36.7947H14.6682V36.309H15.0383V36.0661H14.9643V35.8232H15.8526V35.3374H13.7059V35.216H18.4434V35.0945C18.4599 35.0298 18.4681 34.9731 18.4681 34.9245C18.4681 34.8597 18.4681 34.795 18.4681 34.7302H17.1603C17.1603 34.6492 17.1603 34.5683 17.1603 34.4873C17.1768 34.4064 17.1932 34.3254 17.2097 34.2444H17.9993C18.0157 34.2121 18.0239 34.1716 18.0239 34.123H12.9163C12.9328 34.0906 12.941 34.0501 12.941 34.0016C12.941 33.953 12.9492 33.9125 12.9657 33.8801H17.4564L17.5798 33.3944H16.5682L16.6422 33.1515H14.989L15.0383 33.03H15.5812C15.5976 32.9976 15.6141 32.9572 15.6305 32.9086C15.647 32.86 15.6634 32.8195 15.6799 32.7871H15.4085L15.5071 32.5443H15.6305C15.6634 32.4795 15.6963 32.4228 15.7292 32.3742C15.7621 32.3095 15.7868 32.2447 15.8032 32.1799H15.8279L16.05 31.8156H15.976C16.0089 31.7508 16.0418 31.6942 16.0747 31.6456C16.124 31.5808 16.1734 31.5161 16.2227 31.4513H16.0253C16.0911 31.3703 16.1569 31.2894 16.2227 31.2084C16.2885 31.1112 16.3543 31.0303 16.4201 30.9655H16.198C16.2145 30.9331 16.2309 30.9088 16.2474 30.8927C16.2638 30.8765 16.2803 30.8603 16.2967 30.8441H16.05L16.1734 30.7226H16.124C16.1569 30.6903 16.1816 30.666 16.198 30.6498C16.2145 30.6336 16.2309 30.6174 16.2474 30.6012H15.8032C15.8361 30.5688 15.8773 30.5283 15.9266 30.4798C15.976 30.4312 16.0253 30.3907 16.0747 30.3583H16.6669C16.7491 30.2935 16.8313 30.2369 16.9136 30.1883C16.9958 30.1235 17.0781 30.0588 17.1603 29.994H16.8889L17.0863 29.8725H16.6669C16.6998 29.8402 16.7326 29.8159 16.7655 29.7997C16.7984 29.7835 16.8313 29.7673 16.8642 29.7511H18.1473C18.2625 29.6863 18.3776 29.6297 18.4928 29.5811C18.6079 29.5163 18.7231 29.4515 18.8382 29.3868H18.7642C18.8629 29.3382 18.9616 29.2977 19.0603 29.2653C19.159 29.2168 19.2577 29.1763 19.3564 29.1439H19.8252C19.8745 29.1115 19.9239 29.0872 19.9732 29.071C20.039 29.0548 20.1048 29.0386 20.1706 29.0225H19.4304C19.9239 28.8443 20.4503 28.7229 21.0096 28.6581H21.6758C22.3173 28.561 22.9917 28.5124 23.6991 28.5124C24.39 28.5124 25.0562 28.561 25.6977 28.6581H25.0562C25.599 28.7229 26.1419 28.8443 26.6847 29.0225H27.4249C27.4907 29.0386 27.5483 29.0548 27.5977 29.071C27.6634 29.0872 27.7292 29.1115 27.795 29.1439H27.3262C27.573 29.2249 27.7786 29.3058 27.9431 29.3868H28.0171C28.1487 29.4515 28.2721 29.5163 28.3872 29.5811C28.5024 29.6297 28.6175 29.6863 28.7327 29.7511H27.4743C27.5072 29.7673 27.5401 29.7835 27.573 29.7997C27.6059 29.8159 27.6388 29.8402 27.6717 29.8725H28.0911C28.124 29.8887 28.1569 29.9049 28.1898 29.9211C28.2227 29.9373 28.2474 29.9616 28.2639 29.994H28.5353L29.0288 30.3583H28.4119L28.708 30.6012H29.1521L29.3002 30.7226H29.3249L29.4482 30.8441H29.695L29.8184 30.9655H30.0404C30.1062 31.0303 30.172 31.1112 30.2378 31.2084C30.3036 31.2894 30.3694 31.3703 30.4352 31.4513H30.6079C30.6573 31.5161 30.6984 31.5808 30.7313 31.6456C30.7807 31.6942 30.8218 31.7508 30.8547 31.8156H30.9287C30.9616 31.8804 30.9945 31.9451 31.0274 32.0099C31.0603 32.0585 31.0932 32.1152 31.1261 32.1799H31.0768C31.1097 32.2447 31.1426 32.3095 31.1755 32.3742C31.2084 32.4228 31.233 32.4795 31.2495 32.5443H31.1261L31.2001 32.7871H31.4715L31.5456 33.03H31.0027C31.0027 33.0462 31.0027 33.0624 31.0027 33.0786C31.0192 33.0948 31.0274 33.1191 31.0274 33.1515H32.6806C32.6806 33.2162 32.697 33.2972 32.7299 33.3944H30.4846L30.5586 33.8801H31.9897L32.0144 34.123H35ZM23.6744 33.3944H25.4263C25.1631 33.2972 24.867 33.2486 24.538 33.2486C24.209 33.2486 23.9212 33.2972 23.6744 33.3944ZM27.9431 34.5602C27.9266 34.4954 27.9102 34.4388 27.8937 34.3902C27.8773 34.3416 27.8526 34.293 27.8197 34.2444H28.4119L28.3379 34.123H25.3769C25.3605 34.0744 25.3358 34.0339 25.3029 34.0016C25.27 33.953 25.2371 33.9125 25.2042 33.8801H19.6031C19.5867 33.9125 19.562 33.953 19.5291 34.0016C19.5126 34.0339 19.488 34.0744 19.4551 34.123H24.5627L24.5133 34.2444H23.7238C23.6909 34.3092 23.6662 34.3902 23.6497 34.4873C23.6333 34.5683 23.6168 34.6492 23.6004 34.7302H28.0171L27.9431 34.5602ZM25.0315 39.7093H21.8732L21.9472 40.0736H20.0473C20.0802 40.1708 20.1131 40.2599 20.146 40.3408C20.1789 40.4056 20.22 40.4784 20.2693 40.5594H21.6758C21.7087 40.608 21.7416 40.6566 21.7745 40.7051C21.8074 40.7375 21.8403 40.7699 21.8732 40.8023H21.8238L21.9472 40.9237H22.3667C22.3996 40.9399 22.4325 40.9642 22.4654 40.9966C22.4983 41.0128 22.5312 41.029 22.5641 41.0452H22.9588C23.2385 41.1909 23.5757 41.2638 23.9705 41.2638C24.3653 41.2638 24.6943 41.1909 24.9575 41.0452H24.1432L24.3406 40.9237H24.4887L24.6367 40.8023H23.9952C24.0281 40.7699 24.061 40.7375 24.0939 40.7051C24.1432 40.6566 24.1761 40.608 24.1926 40.5594H24.464C24.5627 40.4137 24.6449 40.2518 24.7107 40.0736H24.8835L24.9328 39.9522C24.9657 39.855 24.9986 39.7741 25.0315 39.7093Z" fill="#231414"/>
</svg>
