<svg width="35" height="36" viewBox="0 0 35 36" fill="none" xmlns="http://www.w3.org/2000/svg">
<path d="M17.6911 34.7953C8.46706 34.7953 1 27.2358 1 17.8976C1 8.55947 8.46706 1 17.6911 1C26.9151 1 34.3821 8.55947 34.3821 17.8976C34.47 27.2358 27.0029 34.7953 17.6911 34.7953Z" stroke="white" stroke-miterlimit="10"/>
<g clip-path="url(#clip0_8_27)">
<path d="M20.4895 21.786C21.6356 21.786 22.5646 22.715 22.5646 23.861L22.5633 25.0018C22.7016 27.5975 20.7716 28.911 17.308 28.911C13.8588 28.911 11.893 27.6188 11.893 25.0467V23.861C11.893 22.715 12.822 21.786 13.968 21.786H20.4895ZM7.44649 15.8573L12.6353 15.8574C12.5377 16.2364 12.4859 16.6336 12.4859 17.043C12.4859 18.3657 13.0273 19.562 13.9007 20.4223L14.0928 20.6014L13.968 20.6002C13.6107 20.6002 13.2668 20.6577 12.9451 20.7639C11.9197 21.1024 11.1195 21.9359 10.8273 22.9814L10.7864 22.9824C7.33724 22.9824 5.37146 21.6902 5.37146 19.1181V17.9323C5.37146 16.7863 6.30048 15.8573 7.44649 15.8573ZM27.0111 15.8573C28.1571 15.8573 29.0861 16.7863 29.0861 17.9323L29.0848 19.0731C29.2232 21.6688 27.2932 22.9824 23.8295 22.9824L23.63 22.9804C23.3467 21.9679 22.5869 21.1543 21.6076 20.797C21.3286 20.6951 21.0318 20.6304 20.7231 20.6084L20.4895 20.6002L20.3647 20.6014C21.3501 19.7323 21.9717 18.4602 21.9717 17.043C21.9717 16.6336 21.9199 16.2364 21.8223 15.8574L27.0111 15.8573ZM17.2288 13.4858C19.1934 13.4858 20.786 15.0785 20.786 17.043C20.786 19.0077 19.1934 20.6002 17.2288 20.6002C15.2641 20.6002 13.6716 19.0077 13.6716 17.043C13.6716 15.0785 15.2641 13.4858 17.2288 13.4858ZM10.7073 7.55719C12.6718 7.55719 14.2645 9.14981 14.2645 11.1144C14.2645 13.079 12.6718 14.6716 10.7073 14.6716C8.74267 14.6716 7.15006 13.079 7.15006 11.1144C7.15006 9.14981 8.74267 7.55719 10.7073 7.55719ZM23.7503 7.55719C25.7149 7.55719 27.3075 9.14981 27.3075 11.1144C27.3075 13.079 25.7149 14.6716 23.7503 14.6716C21.7857 14.6716 20.1931 13.079 20.1931 11.1144C20.1931 9.14981 21.7857 7.55719 23.7503 7.55719Z" fill="white"/>
<path d="M20.4895 21.786C21.6356 21.786 22.5646 22.715 22.5646 23.861L22.5633 25.0018C22.7016 27.5975 20.7716 28.911 17.308 28.911C13.8588 28.911 11.893 27.6188 11.893 25.0467V23.861C11.893 22.715 12.822 21.786 13.968 21.786H20.4895ZM7.44649 15.8573L12.6353 15.8574C12.5377 16.2364 12.4859 16.6336 12.4859 17.043C12.4859 18.3657 13.0273 19.562 13.9007 20.4223L14.0928 20.6014L13.968 20.6002C13.6107 20.6002 13.2668 20.6577 12.9451 20.7639C11.9197 21.1024 11.1195 21.9359 10.8273 22.9814L10.7864 22.9824C7.33724 22.9824 5.37146 21.6902 5.37146 19.1181V17.9323C5.37146 16.7863 6.30048 15.8573 7.44649 15.8573ZM27.0111 15.8573C28.1571 15.8573 29.0861 16.7863 29.0861 17.9323L29.0848 19.0731C29.2232 21.6688 27.2932 22.9824 23.8295 22.9824L23.63 22.9804C23.3467 21.9679 22.5869 21.1543 21.6076 20.797C21.3286 20.6951 21.0318 20.6304 20.7231 20.6084L20.4895 20.6002L20.3647 20.6014C21.3501 19.7323 21.9717 18.4602 21.9717 17.043C21.9717 16.6336 21.9199 16.2364 21.8223 15.8574L27.0111 15.8573ZM17.2288 13.4858C19.1934 13.4858 20.786 15.0785 20.786 17.043C20.786 19.0077 19.1934 20.6002 17.2288 20.6002C15.2641 20.6002 13.6716 19.0077 13.6716 17.043C13.6716 15.0785 15.2641 13.4858 17.2288 13.4858ZM10.7073 7.55719C12.6718 7.55719 14.2645 9.14981 14.2645 11.1144C14.2645 13.079 12.6718 14.6716 10.7073 14.6716C8.74267 14.6716 7.15006 13.079 7.15006 11.1144C7.15006 9.14981 8.74267 7.55719 10.7073 7.55719ZM23.7503 7.55719C25.7149 7.55719 27.3075 9.14981 27.3075 11.1144C27.3075 13.079 25.7149 14.6716 23.7503 14.6716C21.7857 14.6716 20.1931 13.079 20.1931 11.1144C20.1931 9.14981 21.7857 7.55719 23.7503 7.55719Z" stroke="black"/>
</g>
<defs>
<clipPath id="clip0_8_27">
<rect width="28.4576" height="28.4576" fill="white" transform="translate(1 4)"/>
</clipPath>
</defs>
</svg>
