<svg width="164" height="56" viewBox="0 0 164 56" fill="none" xmlns="http://www.w3.org/2000/svg">
<path d="M23.2027 34.2588C23.8084 34.2609 24.3984 34.069 24.8833 33.7121C25.3682 33.3552 25.7216 32.8528 25.8901 32.2808C26.0585 31.7088 26.0328 31.0985 25.8169 30.5421C25.601 29.9858 25.2066 29.5137 24.6934 29.1974C24.1801 28.8811 23.5761 28.7377 22.9726 28.789C22.369 28.8403 21.7989 29.0834 21.3486 29.4816C20.8981 29.8798 20.592 30.4113 20.4764 30.9958C20.3607 31.5803 20.4419 32.186 20.7078 32.721L17.2214 36.148C16.5676 35.7115 15.8028 35.4631 15.0132 35.4306C14.2235 35.3982 13.4403 35.583 12.7517 35.9643L10.8176 33.7116C11.3594 33.0237 11.6247 32.1638 11.5631 31.2959C11.5014 30.4281 11.117 29.6129 10.4832 29.0057C9.84938 28.3985 9.01042 28.0417 8.12624 28.0034C7.24202 27.9652 6.37441 28.248 5.68876 28.7981C5.00306 29.3481 4.54726 30.127 4.4082 30.9862C4.26914 31.8453 4.45654 32.7248 4.93469 33.4569C5.41284 34.189 6.14833 34.7225 7.00094 34.9558C7.85355 35.1892 8.7637 35.106 9.55796 34.7221L11.5084 36.9948C11.0319 37.5782 10.7239 38.2769 10.6167 39.0176C10.5094 39.7583 10.6069 40.5137 10.8989 41.2046L8.1236 43.01C7.59386 42.5133 6.89915 42.2218 6.16779 42.1893C5.43643 42.157 4.71785 42.3858 4.1448 42.8336C3.57175 43.2815 3.18295 43.9181 3.05023 44.6258C2.91751 45.3335 3.04984 46.0645 3.42277 46.6838C3.7957 47.3031 4.38402 47.7688 5.07907 47.9948C5.77409 48.2209 6.5289 48.192 7.20398 47.9136C7.87907 47.6352 8.42884 47.126 8.75175 46.4802C9.07462 45.8343 9.14882 45.0954 8.96065 44.4L11.805 42.5586C12.5181 43.276 13.4701 43.717 14.4868 43.8008L14.8078 46.7365C14.1901 46.9777 13.6809 47.4286 13.3729 48.0075C13.0648 48.5864 12.9783 49.2547 13.1291 49.891C13.2799 50.5273 13.658 51.0892 14.1947 51.4747C14.7313 51.8601 15.3908 52.0434 16.0533 51.9913C16.7158 51.9392 17.3373 51.6552 17.8048 51.1907C18.2722 50.7263 18.5546 50.1125 18.6006 49.4608C18.6466 48.809 18.4531 48.1627 18.0553 47.6393C17.6576 47.1159 17.082 46.7502 16.4331 46.6087L16.0918 43.6011C16.9398 43.3408 17.6841 42.827 18.221 42.1313L20.1226 43.0539C20.1364 43.5655 20.3314 44.0563 20.674 44.4415C21.0167 44.8268 21.4854 45.0824 21.9993 45.1643C22.5132 45.2461 23.04 45.1491 23.4888 44.8898C23.9377 44.6306 24.2804 44.2255 24.4578 43.7443C24.6352 43.2632 24.6361 42.7363 24.4605 42.2546C24.2848 41.7729 23.9436 41.3665 23.4957 41.1057C23.0478 40.8449 22.5213 40.746 22.0071 40.826C21.4929 40.9061 21.0233 41.1601 20.6793 41.5441L18.9402 40.7014C19.1044 40.1207 19.1378 39.5119 19.0381 38.9173C18.9385 38.3227 18.7082 37.7566 18.3632 37.2584L21.8252 33.8913C22.2435 34.1306 22.7186 34.2574 23.2027 34.2588ZM6.05536 46.5288C5.78128 46.5288 5.5134 46.449 5.28554 46.2993C5.05768 46.1496 4.88008 45.9369 4.77521 45.6881C4.67034 45.4392 4.6429 45.1653 4.69636 44.9011C4.74983 44.6369 4.88179 44.3942 5.07557 44.2038C5.26935 44.0133 5.51624 43.8836 5.78502 43.831C6.05381 43.7785 6.3324 43.8054 6.58558 43.9085C6.83877 44.0116 7.05518 44.1861 7.20744 44.4101C7.35969 44.6341 7.44096 44.8975 7.44096 45.1668C7.43986 45.5277 7.29354 45.8736 7.03393 46.1287C6.77432 46.384 6.42248 46.5278 6.05536 46.5288ZM22.3534 42.4029C22.4732 42.4029 22.5902 42.4378 22.6898 42.5032C22.7893 42.5686 22.8669 42.6615 22.9127 42.7703C22.9586 42.879 22.9706 42.9987 22.9472 43.1141C22.9238 43.2295 22.8662 43.3356 22.7815 43.4188C22.6969 43.5021 22.589 43.5587 22.4715 43.5817C22.3541 43.6047 22.2323 43.5929 22.1217 43.5478C22.0111 43.5028 21.9165 43.4265 21.85 43.3286C21.7835 43.2308 21.748 43.1157 21.748 42.998C21.748 42.8402 21.8117 42.6888 21.9253 42.5772C22.0388 42.4656 22.1928 42.4029 22.3534 42.4029ZM23.2027 30.3964C23.3945 30.396 23.5834 30.4428 23.7521 30.5325C23.9209 30.6222 24.0642 30.7519 24.1688 30.91C24.2736 31.068 24.3363 31.2493 24.3515 31.4372C24.3667 31.6252 24.3339 31.814 24.2559 31.9863C24.1779 32.1586 24.0573 32.3089 23.905 32.4237C23.7528 32.5385 23.5738 32.614 23.3843 32.6433C23.1948 32.6727 23.0008 32.655 22.8201 32.5918C22.6393 32.5287 22.4775 32.422 22.3494 32.2817L22.329 32.2577C22.1519 32.0554 22.054 31.7977 22.0527 31.5308C22.0527 31.2306 22.1737 30.9427 22.3893 30.7301C22.6048 30.5175 22.8973 30.3975 23.2027 30.3964ZM6.03504 31.5507C6.03504 31.1697 6.14983 30.7972 6.36494 30.4802C6.58006 30.1632 6.88586 29.9159 7.24376 29.7696C7.6017 29.6232 7.99568 29.5843 8.37605 29.6578C8.75642 29.7313 9.10611 29.9138 9.38108 30.1824C9.65605 30.451 9.84389 30.7937 9.92102 31.1671C9.9981 31.5405 9.96096 31.928 9.81427 32.2808C9.66763 32.6335 9.41798 32.9356 9.09681 33.149C8.77568 33.3624 8.39743 33.4776 8.00982 33.4799C7.75119 33.481 7.49492 33.4319 7.25563 33.3354C7.01638 33.239 6.79879 33.0972 6.61537 32.9179C6.43191 32.7388 6.28624 32.5258 6.18668 32.2912C6.08709 32.0566 6.03557 31.805 6.03504 31.5507ZM16.9695 49.2608C16.9695 49.4844 16.902 49.703 16.7757 49.8889C16.6493 50.0747 16.4697 50.2196 16.2596 50.3052C16.0495 50.3907 15.8183 50.4131 15.5952 50.3695C15.3722 50.3259 15.1672 50.2182 15.0064 50.0601C14.8456 49.902 14.7361 49.7006 14.6917 49.4814C14.6473 49.2621 14.6701 49.0348 14.7572 48.8283C14.8442 48.6217 14.9916 48.4452 15.1807 48.321C15.3698 48.1968 15.5921 48.1305 15.8196 48.1305C16.1242 48.1316 16.4161 48.251 16.6315 48.4627C16.8469 48.6745 16.9684 48.9614 16.9695 49.2608ZM14.8362 42.2072C14.315 42.2072 13.8055 42.0553 13.372 41.7708C12.9385 41.4864 12.6005 41.082 12.4006 40.6088C12.2008 40.1356 12.1481 39.6148 12.2492 39.1122C12.3503 38.6095 12.6007 38.1477 12.9686 37.7848C13.3367 37.422 13.8058 37.1744 14.3168 37.0735C14.8278 36.9726 15.3578 37.0228 15.8398 37.2178C16.3218 37.4128 16.7342 37.7438 17.025 38.169C17.3157 38.5942 17.4717 39.0946 17.4733 39.607C17.4744 39.9481 17.407 40.286 17.2749 40.6014C17.1429 40.9168 16.9488 41.2035 16.7038 41.4451C16.4589 41.6866 16.1678 41.8783 15.8473 42.0091C15.5268 42.1399 15.1832 42.2072 14.8362 42.2072Z" fill="#252323"/>
<path d="M22.435 9.983V10.098H21.883C21.8983 10.1747 21.906 10.2513 21.906 10.328C21.906 10.4047 21.906 10.4813 21.906 10.558H17.881C17.881 10.7573 17.7813 10.9107 17.582 11.018C17.49 11.0487 17.421 11.064 17.375 11.064H12.683C12.6217 11.064 12.5603 11.064 12.499 11.064C12.4377 11.0487 12.3763 11.0333 12.315 11.018H8.566V11.133H10.59C10.5747 11.2097 10.567 11.2863 10.567 11.363C10.567 11.4397 10.567 11.5163 10.567 11.593H9.762C9.74667 11.6237 9.739 11.662 9.739 11.708C9.739 11.754 9.739 11.7923 9.739 11.823H9.808V12.053H9.463V12.513H10.567V12.628H6.841V12.858H8.014V13.318H10.383V13.433H9.417V13.548H8.796V14.008H10.567C10.5823 14.0693 10.59 14.1307 10.59 14.192C10.59 14.238 10.59 14.2917 10.59 14.353H11.234V14.468H8.267V14.698H7.6V14.813H10.59V14.836H15.19C15.4813 14.836 15.65 14.9817 15.696 15.273H19.1V15.618H18.939L18.893 16.078H18.64L18.617 16.308H19.215C19.215 16.354 19.2073 16.3923 19.192 16.423H19.054C19.0387 16.4537 19.031 16.492 19.031 16.538H19.79L19.721 16.883H19.008C19.008 16.8983 19.0003 16.9137 18.985 16.929C18.985 16.9443 18.985 16.9673 18.985 16.998H18.801C18.7857 17.0593 18.7627 17.1207 18.732 17.182C18.7167 17.228 18.7013 17.2817 18.686 17.343H18.962C18.962 17.3583 18.9467 17.3967 18.916 17.458H18.456C18.4253 17.5347 18.387 17.6113 18.341 17.688C18.3103 17.7647 18.272 17.8413 18.226 17.918H18.686L18.479 18.263H18.686L18.456 18.608H18.318C18.2567 18.6847 18.1877 18.7613 18.111 18.838C18.0497 18.9147 17.9807 18.9913 17.904 19.068H17.72C17.7047 19.0833 17.6893 19.0987 17.674 19.114C17.6587 19.1293 17.6357 19.1523 17.605 19.183H16.616L16.501 19.298H21.124C21.032 19.3747 20.94 19.4513 20.848 19.528C20.756 19.6047 20.6563 19.6813 20.549 19.758H20.296C20.1427 19.8653 19.9587 19.9803 19.744 20.103H14.891C14.7377 20.195 14.5767 20.2793 14.408 20.356C14.2393 20.4173 14.0707 20.4863 13.902 20.563H17.697C17.651 20.5783 17.5973 20.5937 17.536 20.609C17.49 20.6243 17.4363 20.6473 17.375 20.678H16.455C16.3937 20.6933 16.3323 20.7087 16.271 20.724C16.2097 20.7393 16.1483 20.7623 16.087 20.793H14.431C13.879 20.9463 13.3117 21.0613 12.729 21.138H13.097C12.8517 21.1687 12.5987 21.1917 12.338 21.207C12.0773 21.2223 11.8167 21.23 11.556 21.23C11.2647 21.23 10.981 21.2223 10.705 21.207C10.4443 21.1917 10.1837 21.1687 9.923 21.138H9.555C8.94167 21.0613 8.37433 20.9463 7.853 20.793H9.509C9.44767 20.7623 9.38633 20.7393 9.325 20.724C9.279 20.7087 9.22533 20.6933 9.164 20.678H10.107L9.785 20.563H5.99C5.83667 20.4863 5.67567 20.4173 5.507 20.356C5.35367 20.2793 5.20033 20.195 5.047 20.103H9.923C9.831 20.0417 9.739 19.988 9.647 19.942C9.555 19.8807 9.47067 19.8193 9.394 19.758H9.647C9.463 19.62 9.28667 19.4667 9.118 19.298H4.472C4.45667 19.2673 4.44133 19.2443 4.426 19.229C4.41067 19.2137 4.38767 19.1983 4.357 19.183H5.369C5.35367 19.1523 5.33067 19.1293 5.3 19.114C5.28467 19.0987 5.26933 19.0833 5.254 19.068H5.438C5.3 18.9147 5.16967 18.7613 5.047 18.608H5.185L4.978 18.263H4.771L4.564 17.918H4.104L3.897 17.458H4.38L4.334 17.343H4.035C4.01967 17.2817 4.00433 17.228 3.989 17.182C3.97367 17.1207 3.95067 17.0593 3.92 16.998H4.104L4.058 16.883H4.771C4.75567 16.8217 4.74033 16.768 4.725 16.722C4.70967 16.6607 4.69433 16.5993 4.679 16.538H4.311C4.29567 16.5073 4.288 16.469 4.288 16.423H3.897C3.88167 16.3923 3.874 16.354 3.874 16.308H3.897C3.897 16.2467 3.88167 16.17 3.851 16.078H2.54L2.471 15.618H4.242C4.22667 15.5567 4.219 15.503 4.219 15.457C4.219 15.3957 4.21133 15.3343 4.196 15.273H4.633C4.633 15.227 4.633 15.181 4.633 15.135C4.633 15.089 4.62533 15.043 4.61 14.997V14.813H1.62V14.698H2.287V14.468H5.254V14.353H4.61C4.61 14.2917 4.60233 14.238 4.587 14.192C4.587 14.1307 4.587 14.0693 4.587 14.008H2.816V13.548H3.437V13.433H4.403V13.318H2.034V12.858H0.861V12.628H4.587V12.513H3.483V12.053H3.828V11.823H3.759V11.593H4.587V11.133H2.586V11.018H7.002V10.903C7.01733 10.8417 7.025 10.788 7.025 10.742C7.025 10.6807 7.025 10.6193 7.025 10.558H5.806C5.806 10.4813 5.806 10.4047 5.806 10.328C5.82133 10.2513 5.83667 10.1747 5.852 10.098H6.588C6.60333 10.0673 6.611 10.029 6.611 9.983H1.85C1.86533 9.95233 1.873 9.914 1.873 9.868C1.873 9.822 1.88067 9.78367 1.896 9.753H6.082L6.197 9.293H5.254L5.323 9.063H3.782L3.828 8.948H4.334C4.34933 8.91733 4.36467 8.879 4.38 8.833C4.39533 8.787 4.41067 8.74867 4.426 8.718H4.173L4.265 8.488H4.38C4.41067 8.42667 4.44133 8.373 4.472 8.327C4.50267 8.26567 4.52567 8.20433 4.541 8.143H4.564L4.771 7.798H4.702C4.73267 7.73667 4.76333 7.683 4.794 7.637C4.84 7.57567 4.886 7.51433 4.932 7.453H4.748C4.80933 7.37633 4.87067 7.29967 4.932 7.223C4.99333 7.131 5.05467 7.05433 5.116 6.993H4.909C4.92433 6.96233 4.93967 6.93933 4.955 6.924C4.97033 6.90867 4.98567 6.89333 5.001 6.878H4.771L4.886 6.763H4.84C4.87067 6.73233 4.89367 6.70933 4.909 6.694C4.92433 6.67867 4.93967 6.66333 4.955 6.648H4.541C4.57167 6.61733 4.61 6.579 4.656 6.533C4.702 6.487 4.748 6.44867 4.794 6.418H5.346C5.42267 6.35667 5.49933 6.303 5.576 6.257C5.65267 6.19567 5.72933 6.13433 5.806 6.073H5.553L5.737 5.958H5.346C5.37667 5.92733 5.40733 5.90433 5.438 5.889C5.46867 5.87367 5.49933 5.85833 5.53 5.843H6.726C6.83333 5.78167 6.94067 5.728 7.048 5.682C7.15533 5.62067 7.26267 5.55933 7.37 5.498H7.301C7.393 5.452 7.485 5.41367 7.577 5.383C7.669 5.337 7.761 5.29867 7.853 5.268H8.29C8.336 5.23733 8.382 5.21433 8.428 5.199C8.48933 5.18367 8.55067 5.16833 8.612 5.153H7.922C8.382 4.98433 8.87267 4.86933 9.394 4.808H10.015C10.613 4.716 11.2417 4.67 11.901 4.67C12.545 4.67 13.166 4.716 13.764 4.808H13.166C13.672 4.86933 14.178 4.98433 14.684 5.153H15.374C15.4353 5.16833 15.489 5.18367 15.535 5.199C15.5963 5.21433 15.6577 5.23733 15.719 5.268H15.282C15.512 5.34467 15.7037 5.42133 15.857 5.498H15.926C16.0487 5.55933 16.1637 5.62067 16.271 5.682C16.3783 5.728 16.4857 5.78167 16.593 5.843H15.42C15.4507 5.85833 15.4813 5.87367 15.512 5.889C15.5427 5.90433 15.5733 5.92733 15.604 5.958H15.995C16.0257 5.97333 16.0563 5.98867 16.087 6.004C16.1177 6.01933 16.1407 6.04233 16.156 6.073H16.409L16.869 6.418H16.294L16.57 6.648H16.984L17.122 6.763H17.145L17.26 6.878H17.49L17.605 6.993H17.812C17.8733 7.05433 17.9347 7.131 17.996 7.223C18.0573 7.29967 18.1187 7.37633 18.18 7.453H18.341C18.387 7.51433 18.4253 7.57567 18.456 7.637C18.502 7.683 18.5403 7.73667 18.571 7.798H18.64C18.6707 7.85933 18.7013 7.92067 18.732 7.982C18.7627 8.028 18.7933 8.08167 18.824 8.143H18.778C18.8087 8.20433 18.8393 8.26567 18.87 8.327C18.9007 8.373 18.9237 8.42667 18.939 8.488H18.824L18.893 8.718H19.146L19.215 8.948H18.709C18.709 8.96333 18.709 8.97867 18.709 8.994C18.7243 9.00933 18.732 9.03233 18.732 9.063H20.273C20.273 9.12433 20.2883 9.201 20.319 9.293H18.226L18.295 9.753H19.629L19.652 9.983H22.435ZM11.878 9.293H13.511C13.2657 9.201 12.9897 9.155 12.683 9.155C12.3763 9.155 12.108 9.201 11.878 9.293ZM15.857 10.397C15.8417 10.3357 15.8263 10.282 15.811 10.236C15.7957 10.19 15.7727 10.144 15.742 10.098H16.294L16.225 9.983H13.465C13.4497 9.937 13.4267 9.89867 13.396 9.868C13.3653 9.822 13.3347 9.78367 13.304 9.753H8.083C8.06767 9.78367 8.04467 9.822 8.014 9.868C7.99867 9.89867 7.97567 9.937 7.945 9.983H12.706L12.66 10.098H11.924C11.8933 10.1593 11.8703 10.236 11.855 10.328C11.8397 10.4047 11.8243 10.4813 11.809 10.558H15.926L15.857 10.397ZM13.143 15.273H10.199L10.268 15.618H8.497C8.52767 15.71 8.55833 15.7943 8.589 15.871C8.61967 15.9323 8.658 16.0013 8.704 16.078H10.015C10.0457 16.124 10.0763 16.17 10.107 16.216C10.1377 16.2467 10.1683 16.2773 10.199 16.308H10.153L10.268 16.423H10.659C10.6897 16.4383 10.7203 16.4613 10.751 16.492C10.7817 16.5073 10.8123 16.5227 10.843 16.538H11.211C11.4717 16.676 11.786 16.745 12.154 16.745C12.522 16.745 12.8287 16.676 13.074 16.538H12.315L12.499 16.423H12.637L12.775 16.308H12.177C12.2077 16.2773 12.2383 16.2467 12.269 16.216C12.315 16.17 12.3457 16.124 12.361 16.078H12.614C12.706 15.94 12.7827 15.7867 12.844 15.618H13.005L13.051 15.503C13.0817 15.411 13.1123 15.3343 13.143 15.273ZM51.8139 36.983V37.098H51.2619C51.2772 37.1747 51.2849 37.2513 51.2849 37.328C51.2849 37.4047 51.2849 37.4813 51.2849 37.558H47.2599C47.2599 37.7573 47.1602 37.9107 46.9609 38.018C46.8689 38.0487 46.7999 38.064 46.7539 38.064H42.0619C42.0006 38.064 41.9392 38.064 41.8779 38.064C41.8166 38.0487 41.7552 38.0333 41.6939 38.018H37.9449V38.133H39.9689C39.9536 38.2097 39.9459 38.2863 39.9459 38.363C39.9459 38.4397 39.9459 38.5163 39.9459 38.593H39.1409C39.1256 38.6237 39.1179 38.662 39.1179 38.708C39.1179 38.754 39.1179 38.7923 39.1179 38.823H39.1869V39.053H38.8419V39.513H39.9459V39.628H36.2199V39.858H37.3929V40.318H39.7619V40.433H38.7959V40.548H38.1749V41.008H39.9459C39.9612 41.0693 39.9689 41.1307 39.9689 41.192C39.9689 41.238 39.9689 41.2917 39.9689 41.353H40.6129V41.468H37.6459V41.698H36.9789V41.813H39.9689V41.836H44.5689C44.8602 41.836 45.0289 41.9817 45.0749 42.273H48.4789V42.618H48.3179L48.2719 43.078H48.0189L47.9959 43.308H48.5939C48.5939 43.354 48.5862 43.3923 48.5709 43.423H48.4329C48.4176 43.4537 48.4099 43.492 48.4099 43.538H49.1689L49.0999 43.883H48.3869C48.3869 43.8983 48.3792 43.9137 48.3639 43.929C48.3639 43.9443 48.3639 43.9673 48.3639 43.998H48.1799C48.1646 44.0593 48.1416 44.1207 48.1109 44.182C48.0956 44.228 48.0802 44.2817 48.0649 44.343H48.3409C48.3409 44.3583 48.3256 44.3967 48.2949 44.458H47.8349C47.8042 44.5347 47.7659 44.6113 47.7199 44.688C47.6892 44.7647 47.6509 44.8413 47.6049 44.918H48.0649L47.8579 45.263H48.0649L47.8349 45.608H47.6969C47.6356 45.6847 47.5666 45.7613 47.4899 45.838C47.4286 45.9147 47.3596 45.9913 47.2829 46.068H47.0989C47.0836 46.0833 47.0682 46.0987 47.0529 46.114C47.0376 46.1293 47.0146 46.1523 46.9839 46.183H45.9949L45.8799 46.298H50.5029C50.4109 46.3747 50.3189 46.4513 50.2269 46.528C50.1349 46.6047 50.0352 46.6813 49.9279 46.758H49.6749C49.5216 46.8653 49.3376 46.9803 49.1229 47.103H44.2699C44.1166 47.195 43.9556 47.2793 43.7869 47.356C43.6182 47.4173 43.4496 47.4863 43.2809 47.563H47.0759C47.0299 47.5783 46.9762 47.5937 46.9149 47.609C46.8689 47.6243 46.8152 47.6473 46.7539 47.678H45.8339C45.7726 47.6933 45.7112 47.7087 45.6499 47.724C45.5886 47.7393 45.5272 47.7623 45.4659 47.793H43.8099C43.2579 47.9463 42.6906 48.0613 42.1079 48.138H42.4759C42.2306 48.1687 41.9776 48.1917 41.7169 48.207C41.4562 48.2223 41.1956 48.23 40.9349 48.23C40.6436 48.23 40.3599 48.2223 40.0839 48.207C39.8232 48.1917 39.5626 48.1687 39.3019 48.138H38.9339C38.3206 48.0613 37.7532 47.9463 37.2319 47.793H38.8879C38.8266 47.7623 38.7652 47.7393 38.7039 47.724C38.6579 47.7087 38.6042 47.6933 38.5429 47.678H39.4859L39.1639 47.563H35.3689C35.2156 47.4863 35.0546 47.4173 34.8859 47.356C34.7326 47.2793 34.5792 47.195 34.4259 47.103H39.3019C39.2099 47.0417 39.1179 46.988 39.0259 46.942C38.9339 46.8807 38.8496 46.8193 38.7729 46.758H39.0259C38.8419 46.62 38.6656 46.4667 38.4969 46.298H33.8509C33.8356 46.2673 33.8202 46.2443 33.8049 46.229C33.7896 46.2137 33.7666 46.1983 33.7359 46.183H34.7479C34.7326 46.1523 34.7096 46.1293 34.6789 46.114C34.6636 46.0987 34.6482 46.0833 34.6329 46.068H34.8169C34.6789 45.9147 34.5486 45.7613 34.4259 45.608H34.5639L34.3569 45.263H34.1499L33.9429 44.918H33.4829L33.2759 44.458H33.7589L33.7129 44.343H33.4139C33.3986 44.2817 33.3832 44.228 33.3679 44.182C33.3526 44.1207 33.3296 44.0593 33.2989 43.998H33.4829L33.4369 43.883H34.1499C34.1346 43.8217 34.1192 43.768 34.1039 43.722C34.0886 43.6607 34.0732 43.5993 34.0579 43.538H33.6899C33.6746 43.5073 33.6669 43.469 33.6669 43.423H33.2759C33.2606 43.3923 33.2529 43.354 33.2529 43.308H33.2759C33.2759 43.2467 33.2606 43.17 33.2299 43.078H31.9189L31.8499 42.618H33.6209C33.6056 42.5567 33.5979 42.503 33.5979 42.457C33.5979 42.3957 33.5902 42.3343 33.5749 42.273H34.0119C34.0119 42.227 34.0119 42.181 34.0119 42.135C34.0119 42.089 34.0042 42.043 33.9889 41.997V41.813H30.9989V41.698H31.6659V41.468H34.6329V41.353H33.9889C33.9889 41.2917 33.9812 41.238 33.9659 41.192C33.9659 41.1307 33.9659 41.0693 33.9659 41.008H32.1949V40.548H32.8159V40.433H33.7819V40.318H31.4129V39.858H30.2399V39.628H33.9659V39.513H32.8619V39.053H33.2069V38.823H33.1379V38.593H33.9659V38.133H31.9649V38.018H36.3809V37.903C36.3962 37.8417 36.4039 37.788 36.4039 37.742C36.4039 37.6807 36.4039 37.6193 36.4039 37.558H35.1849C35.1849 37.4813 35.1849 37.4047 35.1849 37.328C35.2002 37.2513 35.2156 37.1747 35.2309 37.098H35.9669C35.9822 37.0673 35.9899 37.029 35.9899 36.983H31.2289C31.2442 36.9523 31.2519 36.914 31.2519 36.868C31.2519 36.822 31.2596 36.7837 31.2749 36.753H35.4609L35.5759 36.293H34.6329L34.7019 36.063H33.1609L33.2069 35.948H33.7129C33.7282 35.9173 33.7436 35.879 33.7589 35.833C33.7742 35.787 33.7896 35.7487 33.8049 35.718H33.5519L33.6439 35.488H33.7589C33.7896 35.4267 33.8202 35.373 33.8509 35.327C33.8816 35.2657 33.9046 35.2043 33.9199 35.143H33.9429L34.1499 34.798H34.0809C34.1116 34.7367 34.1422 34.683 34.1729 34.637C34.2189 34.5757 34.2649 34.5143 34.3109 34.453H34.1269C34.1882 34.3763 34.2496 34.2997 34.3109 34.223C34.3722 34.131 34.4336 34.0543 34.4949 33.993H34.2879C34.3032 33.9623 34.3186 33.9393 34.3339 33.924C34.3492 33.9087 34.3646 33.8933 34.3799 33.878H34.1499L34.2649 33.763H34.2189C34.2496 33.7323 34.2726 33.7093 34.2879 33.694C34.3032 33.6787 34.3186 33.6633 34.3339 33.648H33.9199C33.9506 33.6173 33.9889 33.579 34.0349 33.533C34.0809 33.487 34.1269 33.4487 34.1729 33.418H34.7249C34.8016 33.3567 34.8782 33.303 34.9549 33.257C35.0316 33.1957 35.1082 33.1343 35.1849 33.073H34.9319L35.1159 32.958H34.7249C34.7556 32.9273 34.7862 32.9043 34.8169 32.889C34.8476 32.8737 34.8782 32.8583 34.9089 32.843H36.1049C36.2122 32.7817 36.3196 32.728 36.4269 32.682C36.5342 32.6207 36.6416 32.5593 36.7489 32.498H36.6799C36.7719 32.452 36.8639 32.4137 36.9559 32.383C37.0479 32.337 37.1399 32.2987 37.2319 32.268H37.6689C37.7149 32.2373 37.7609 32.2143 37.8069 32.199C37.8682 32.1837 37.9296 32.1683 37.9909 32.153H37.3009C37.7609 31.9843 38.2516 31.8693 38.7729 31.808H39.3939C39.9919 31.716 40.6206 31.67 41.2799 31.67C41.9239 31.67 42.5449 31.716 43.1429 31.808H42.5449C43.0509 31.8693 43.5569 31.9843 44.0629 32.153H44.7529C44.8142 32.1683 44.8679 32.1837 44.9139 32.199C44.9752 32.2143 45.0366 32.2373 45.0979 32.268H44.6609C44.8909 32.3447 45.0826 32.4213 45.2359 32.498H45.3049C45.4276 32.5593 45.5426 32.6207 45.6499 32.682C45.7572 32.728 45.8646 32.7817 45.9719 32.843H44.7989C44.8296 32.8583 44.8602 32.8737 44.8909 32.889C44.9216 32.9043 44.9522 32.9273 44.9829 32.958H45.3739C45.4046 32.9733 45.4352 32.9887 45.4659 33.004C45.4966 33.0193 45.5196 33.0423 45.5349 33.073H45.7879L46.2479 33.418H45.6729L45.9489 33.648H46.3629L46.5009 33.763H46.5239L46.6389 33.878H46.8689L46.9839 33.993H47.1909C47.2522 34.0543 47.3136 34.131 47.3749 34.223C47.4362 34.2997 47.4976 34.3763 47.5589 34.453H47.7199C47.7659 34.5143 47.8042 34.5757 47.8349 34.637C47.8809 34.683 47.9192 34.7367 47.9499 34.798H48.0189C48.0496 34.8593 48.0802 34.9207 48.1109 34.982C48.1416 35.028 48.1722 35.0817 48.2029 35.143H48.1569C48.1876 35.2043 48.2182 35.2657 48.2489 35.327C48.2796 35.373 48.3026 35.4267 48.3179 35.488H48.2029L48.2719 35.718H48.5249L48.5939 35.948H48.0879C48.0879 35.9633 48.0879 35.9787 48.0879 35.994C48.1032 36.0093 48.1109 36.0323 48.1109 36.063H49.6519C49.6519 36.1243 49.6672 36.201 49.6979 36.293H47.6049L47.6739 36.753H49.0079L49.0309 36.983H51.8139ZM41.2569 36.293H42.8899C42.6446 36.201 42.3686 36.155 42.0619 36.155C41.7552 36.155 41.4869 36.201 41.2569 36.293ZM45.2359 37.397C45.2206 37.3357 45.2052 37.282 45.1899 37.236C45.1746 37.19 45.1516 37.144 45.1209 37.098H45.6729L45.6039 36.983H42.8439C42.8286 36.937 42.8056 36.8987 42.7749 36.868C42.7442 36.822 42.7136 36.7837 42.6829 36.753H37.4619C37.4466 36.7837 37.4236 36.822 37.3929 36.868C37.3776 36.8987 37.3546 36.937 37.3239 36.983H42.0849L42.0389 37.098H41.3029C41.2722 37.1593 41.2492 37.236 41.2339 37.328C41.2186 37.4047 41.2032 37.4813 41.1879 37.558H45.3049L45.2359 37.397ZM42.5219 42.273H39.5779L39.6469 42.618H37.8759C37.9066 42.71 37.9372 42.7943 37.9679 42.871C37.9986 42.9323 38.0369 43.0013 38.0829 43.078H39.3939C39.4246 43.124 39.4552 43.17 39.4859 43.216C39.5166 43.2467 39.5472 43.2773 39.5779 43.308H39.5319L39.6469 43.423H40.0379C40.0686 43.4383 40.0992 43.4613 40.1299 43.492C40.1606 43.5073 40.1912 43.5227 40.2219 43.538H40.5899C40.8506 43.676 41.1649 43.745 41.5329 43.745C41.9009 43.745 42.2076 43.676 42.4529 43.538H41.6939L41.8779 43.423H42.0159L42.1539 43.308H41.5559C41.5866 43.2773 41.6172 43.2467 41.6479 43.216C41.6939 43.17 41.7246 43.124 41.7399 43.078H41.9929C42.0849 42.94 42.1616 42.7867 42.2229 42.618H42.3839L42.4299 42.503C42.4606 42.411 42.4912 42.3343 42.5219 42.273Z" fill="#041621"/>
<path d="M21.3632 21V9.5H23.0882V12.329C23.1495 12.1297 23.2645 11.869 23.4332 11.547C23.6172 11.2097 23.8778 10.8723 24.2152 10.535C24.5525 10.1977 24.9742 9.914 25.4802 9.684C26.0015 9.43867 26.6148 9.316 27.3202 9.316H27.4352V11.041H27.2282C26.3695 11.041 25.6258 11.2787 24.9972 11.754C24.3838 12.214 23.9085 12.8197 23.5712 13.571C23.2492 14.307 23.0882 15.0967 23.0882 15.94V21H21.3632ZM34.1059 21.184C32.9405 21.184 31.9209 20.9233 31.0469 20.402C30.1729 19.8653 29.4905 19.1447 28.9999 18.24C28.5245 17.3353 28.2869 16.3387 28.2869 15.25C28.2869 14.146 28.5169 13.1493 28.9769 12.26C29.4369 11.3553 30.0962 10.6423 30.9549 10.121C31.8135 9.58433 32.8255 9.316 33.9909 9.316C35.1715 9.316 36.1836 9.58433 37.0269 10.121C37.8856 10.6423 38.5449 11.3553 39.0049 12.26C39.4649 13.1493 39.6949 14.146 39.6949 15.25V15.94H30.0579C30.1499 16.6147 30.3645 17.2357 30.7019 17.803C31.0545 18.355 31.5222 18.7997 32.1049 19.137C32.6875 19.459 33.3622 19.62 34.1289 19.62C34.9415 19.62 35.6239 19.4437 36.1759 19.091C36.7279 18.723 37.1572 18.2553 37.4639 17.688H39.3499C38.9512 18.7153 38.3149 19.5587 37.4409 20.218C36.5822 20.862 35.4705 21.184 34.1059 21.184ZM30.0809 14.33H37.9009C37.7476 13.3487 37.3336 12.5283 36.6589 11.869C35.9842 11.2097 35.0949 10.88 33.9909 10.88C32.8869 10.88 31.9975 11.2097 31.3229 11.869C30.6635 12.5283 30.2495 13.3487 30.0809 14.33ZM46.6556 21.184C45.5363 21.184 44.555 20.9233 43.7116 20.402C42.8836 19.8653 42.2396 19.1447 41.7796 18.24C41.3196 17.3353 41.0896 16.3387 41.0896 15.25C41.0896 14.146 41.3196 13.1493 41.7796 12.26C42.2396 11.3553 42.8836 10.6423 43.7116 10.121C44.555 9.58433 45.5363 9.316 46.6556 9.316C47.6063 9.316 48.419 9.5 49.0936 9.868C49.7836 10.236 50.3433 10.7343 50.7726 11.363V9.5H52.4976V21H50.7726V19.16C50.3433 19.7733 49.7836 20.264 49.0936 20.632C48.419 21 47.6063 21.184 46.6556 21.184ZM46.8856 19.62C47.7443 19.62 48.465 19.4207 49.0476 19.022C49.6456 18.6233 50.098 18.0943 50.4046 17.435C50.7113 16.7603 50.8646 16.032 50.8646 15.25C50.8646 14.4527 50.7113 13.7243 50.4046 13.065C50.098 12.4057 49.6456 11.8767 49.0476 11.478C48.465 11.0793 47.7443 10.88 46.8856 10.88C46.0423 10.88 45.314 11.0793 44.7006 11.478C44.0873 11.8767 43.6196 12.4057 43.2976 13.065C42.9756 13.7243 42.8146 14.4527 42.8146 15.25C42.8146 16.032 42.9756 16.7603 43.2976 17.435C43.6196 18.0943 44.0873 18.6233 44.7006 19.022C45.314 19.4207 46.0423 19.62 46.8856 19.62ZM56.7233 21V11.018H54.3773V9.5H56.7233V5.383H58.4483V9.5H61.0933V11.018H58.4483V21H56.7233ZM62.9143 7.568V5.314H64.7773V7.568H62.9143ZM62.9833 21V9.5H64.7083V21H62.9833ZM70.8281 21L66.3201 9.5H68.2061L71.8401 19.16L75.4511 9.5H77.3371L72.8521 21H70.8281ZM83.8344 21.184C82.6691 21.184 81.6494 20.9233 80.7754 20.402C79.9014 19.8653 79.2191 19.1447 78.7284 18.24C78.2531 17.3353 78.0154 16.3387 78.0154 15.25C78.0154 14.146 78.2454 13.1493 78.7054 12.26C79.1654 11.3553 79.8247 10.6423 80.6834 10.121C81.5421 9.58433 82.5541 9.316 83.7194 9.316C84.9001 9.316 85.9121 9.58433 86.7554 10.121C87.6141 10.6423 88.2734 11.3553 88.7334 12.26C89.1934 13.1493 89.4234 14.146 89.4234 15.25V15.94H79.7864C79.8784 16.6147 80.0931 17.2357 80.4304 17.803C80.7831 18.355 81.2507 18.7997 81.8334 19.137C82.4161 19.459 83.0907 19.62 83.8574 19.62C84.6701 19.62 85.3524 19.4437 85.9044 19.091C86.4564 18.723 86.8857 18.2553 87.1924 17.688H89.0784C88.6797 18.7153 88.0434 19.5587 87.1694 20.218C86.3107 20.862 85.1991 21.184 83.8344 21.184ZM79.8094 14.33H87.6294C87.4761 13.3487 87.0621 12.5283 86.3874 11.869C85.7127 11.2097 84.8234 10.88 83.7194 10.88C82.6154 10.88 81.7261 11.2097 81.0514 11.869C80.3921 12.5283 79.9781 13.3487 79.8094 14.33ZM55.7331 48.184C54.5677 48.184 53.5557 47.9233 52.6971 47.402C51.8384 46.8653 51.1791 46.1447 50.7191 45.24C50.2591 44.3353 50.0291 43.3387 50.0291 42.25C50.0291 41.146 50.2591 40.1493 50.7191 39.26C51.1791 38.3553 51.8384 37.6423 52.6971 37.121C53.5557 36.5843 54.5677 36.316 55.7331 36.316C56.9137 36.316 57.9257 36.5843 58.7691 37.121C59.6277 37.6423 60.2871 38.3553 60.7471 39.26C61.2071 40.1493 61.4371 41.146 61.4371 42.25C61.4371 43.3387 61.2071 44.3353 60.7471 45.24C60.2871 46.1447 59.6277 46.8653 58.7691 47.402C57.9257 47.9233 56.9137 48.184 55.7331 48.184ZM55.7331 46.62C56.5917 46.62 57.3124 46.4207 57.8951 46.022C58.4931 45.6233 58.9454 45.0943 59.2521 44.435C59.5587 43.7603 59.7121 43.032 59.7121 42.25C59.7121 41.4527 59.5587 40.7243 59.2521 40.065C58.9454 39.4057 58.4931 38.8767 57.8951 38.478C57.3124 38.0793 56.5917 37.88 55.7331 37.88C54.8897 37.88 54.1691 38.0793 53.5711 38.478C52.9731 38.8767 52.5207 39.4057 52.2141 40.065C51.9074 40.7243 51.7541 41.4527 51.7541 42.25C51.7541 43.032 51.9074 43.7603 52.2141 44.435C52.5207 45.0943 52.9731 45.6233 53.5711 46.022C54.1691 46.4207 54.8897 46.62 55.7331 46.62ZM63.7245 48V36.5H65.4495V38.248C65.7102 37.788 66.1242 37.351 66.6915 36.937C67.2588 36.523 68.0102 36.316 68.9455 36.316C69.7122 36.316 70.4175 36.523 71.0615 36.937C71.7208 37.3357 72.2345 37.903 72.6025 38.639C72.7558 38.3783 72.9935 38.064 73.3155 37.696C73.6528 37.328 74.0898 37.006 74.6265 36.73C75.1632 36.454 75.8072 36.316 76.5585 36.316C77.2945 36.316 77.9845 36.5077 78.6285 36.891C79.2725 37.2743 79.7938 37.8263 80.1925 38.547C80.6065 39.2523 80.8135 40.088 80.8135 41.054V48H79.0885V41.1C79.0885 40.134 78.8125 39.3597 78.2605 38.777C77.7238 38.179 77.0492 37.88 76.2365 37.88C75.3932 37.88 74.6648 38.1637 74.0515 38.731C73.4382 39.2983 73.1315 40.0957 73.1315 41.123V48H71.4065V41.1C71.4065 40.134 71.1305 39.3597 70.5785 38.777C70.0418 38.179 69.3672 37.88 68.5545 37.88C67.7112 37.88 66.9828 38.1637 66.3695 38.731C65.7562 39.2983 65.4495 40.0957 65.4495 41.123V48H63.7245ZM83.6923 48V36.5H85.4173V38.248C85.6779 37.788 86.0919 37.351 86.6593 36.937C87.2266 36.523 87.9779 36.316 88.9133 36.316C89.6799 36.316 90.3853 36.523 91.0293 36.937C91.6886 37.3357 92.2023 37.903 92.5703 38.639C92.7236 38.3783 92.9613 38.064 93.2833 37.696C93.6206 37.328 94.0576 37.006 94.5943 36.73C95.1309 36.454 95.7749 36.316 96.5263 36.316C97.2623 36.316 97.9523 36.5077 98.5963 36.891C99.2403 37.2743 99.7616 37.8263 100.16 38.547C100.574 39.2523 100.781 40.088 100.781 41.054V48H99.0563V41.1C99.0563 40.134 98.7803 39.3597 98.2283 38.777C97.6916 38.179 97.0169 37.88 96.2043 37.88C95.3609 37.88 94.6326 38.1637 94.0193 38.731C93.4059 39.2983 93.0993 40.0957 93.0993 41.123V48H91.3743V41.1C91.3743 40.134 91.0983 39.3597 90.5463 38.777C90.0096 38.179 89.3349 37.88 88.5223 37.88C87.6789 37.88 86.9506 38.1637 86.3373 38.731C85.7239 39.2983 85.4173 40.0957 85.4173 41.123V48H83.6923ZM108.145 48.184C107.363 48.184 106.619 48 105.914 47.632C105.209 47.2487 104.634 46.689 104.189 45.953C103.76 45.2017 103.545 44.2817 103.545 43.193V36.5H105.27V43.147C105.27 44.1897 105.569 45.033 106.167 45.677C106.78 46.3057 107.555 46.62 108.49 46.62C109.134 46.62 109.717 46.4743 110.238 46.183C110.759 45.8763 111.173 45.4623 111.48 44.941C111.802 44.4197 111.963 43.814 111.963 43.124V36.5H113.688V48H111.963V46.206C111.549 46.758 111.043 47.2257 110.445 47.609C109.847 47.9923 109.08 48.184 108.145 48.184ZM116.687 48V36.5H118.412V38.294C118.826 37.742 119.332 37.2743 119.93 36.891C120.528 36.5077 121.295 36.316 122.23 36.316C123.028 36.316 123.771 36.5077 124.461 36.891C125.167 37.259 125.734 37.8187 126.163 38.57C126.608 39.306 126.83 40.2183 126.83 41.307V48H125.105V41.353C125.105 40.3103 124.806 39.4747 124.208 38.846C123.61 38.202 122.836 37.88 121.885 37.88C121.241 37.88 120.659 38.0257 120.137 38.317C119.616 38.6083 119.194 39.0223 118.872 39.559C118.566 40.0803 118.412 40.686 118.412 41.376V48H116.687ZM129.646 34.568V32.314H131.509V34.568H129.646ZM129.715 48V36.5H131.44V48H129.715ZM135.674 48V38.018H133.328V36.5H135.674V32.383H137.399V36.5H140.044V38.018H137.399V48H135.674ZM143.129 52.554L145.222 47.839L140.53 36.5H142.439L146.142 45.93L149.914 36.5H151.8L144.992 52.554H143.129Z" fill="#231414"/>
</svg>
