<svg width="95" height="88" viewBox="0 0 95 88" fill="none" xmlns="http://www.w3.org/2000/svg">
<path d="M57.6801 13.6544C57.261 13.2354 56.6926 13 56.1 13C55.5074 13 54.9391 13.2354 54.52 13.6544L43.5557 24.6188L38.8159 19.879C38.6085 19.6711 38.3622 19.5062 38.091 19.3937C37.8198 19.2811 37.5291 19.2231 37.2355 19.2229C36.9419 19.2228 36.6511 19.2805 36.3798 19.3928C36.1085 19.5051 35.862 19.6698 35.6544 19.8774C35.4468 20.085 35.2822 20.3315 35.1699 20.6028C35.0576 20.8741 34.9999 21.1648 35 21.4584C35.0001 21.7521 35.0582 22.0428 35.1707 22.3139C35.2833 22.5851 35.4482 22.8315 35.656 23.0389L41.9758 29.3586C42.1833 29.5661 42.4296 29.7307 42.7007 29.843C42.9718 29.9553 43.2623 30.0131 43.5557 30.0131C43.8492 30.0131 44.1397 29.9553 44.4108 29.843C44.6819 29.7307 44.9282 29.5661 45.1357 29.3586L57.6801 16.8143C58.0991 16.3952 58.3345 15.8269 58.3345 15.2343C58.3345 14.6417 58.0991 14.0734 57.6801 13.6544Z" fill="white"/>
<path d="M94.8744 32.1855C94.8735 32.0207 94.8434 31.8575 94.7854 31.7033C94.6362 31.1548 94.298 30.6766 93.8304 30.3533L80.2393 20.905V2.43115C80.2392 1.78637 79.9831 1.16802 79.5272 0.712094C79.0712 0.256172 78.4529 2.61256e-05 77.8081 0H17.1386C16.4939 2.61258e-05 15.8755 0.256172 15.4196 0.712094C14.9636 1.16802 14.7075 1.78637 14.7075 2.43115V20.7844L1.04959 30.2253C0.730819 30.4455 0.469484 30.7389 0.287503 31.0809C0.105522 31.423 0.00819966 31.8036 0.00369809 32.191C0.00146279 32.2051 0.000227039 32.2194 0 32.2337L0.0723181 84.9421C0.0724024 85.2612 0.135371 85.5771 0.257624 85.8718C0.379876 86.1665 0.559016 86.4342 0.784802 86.6597C1.01059 86.8851 1.27859 87.0639 1.5735 87.1857C1.8684 87.3075 2.18441 87.3699 2.50348 87.3695H2.50718L92.5174 87.2472C93.1624 87.2462 93.7806 86.9892 94.2361 86.5326C94.6917 86.076 94.9473 85.4573 94.9468 84.8123L94.8744 32.1855ZM14.7075 37.7561L6.70746 32.2263L14.7075 26.6964V37.7561ZM73.7061 40.1372L56.6936 51.9667L50.0343 46.8002C49.9952 46.7683 49.9543 46.7386 49.9119 46.7112C49.1934 46.1927 48.3266 45.9203 47.4406 45.9347C46.5547 45.9491 45.6972 46.2494 44.9958 46.7909L38.268 52.0112L21.2406 40.2411V6.53132H73.7061V40.1372ZM80.2393 37.6282V26.828L88.0093 32.2262L80.2393 37.6282Z" fill="white"/>
</svg>
