<svg width="34" height="34" viewBox="0 0 34 34" fill="none" xmlns="http://www.w3.org/2000/svg">
<path d="M1.25 17.1189C1.25 25.8796 8.25817 32.9879 16.9341 32.9879C25.6837 32.9879 32.6989 25.8839 32.6182 17.1153C32.6163 8.3563 25.6089 1.25 16.9341 1.25C8.25817 1.25 1.25 8.35825 1.25 17.1189Z" stroke="white" stroke-width="1.5" stroke-miterlimit="10"/>
<path d="M16.5439 18.6358C15.3348 19.7919 14.7188 20.6438 14.2663 21.2021C14.9179 21.5978 19.6254 24.4859 21.9782 25.9957C22.2574 19.906 23.439 13.4612 23.9948 11C19.434 12.157 10.098 16.0746 6 17.8889L11.0416 19.7919C12.557 18.7902 16.3695 16.4117 19.4961 14.9107" stroke="white" stroke-linecap="round" stroke-linejoin="round"/>
</svg>
